<?xml version="1.0" standalone="no"?>
<!DOCTYPE svg PUBLIC "-//W3C//DTD SVG 1.1//EN" "http://www.w3.org/Graphics/SVG/1.1/DTD/svg11.dtd" >
<svg xmlns="http://www.w3.org/2000/svg">
<metadata></metadata>
<defs>
<font id="futura_ltcondensedoblique" horiz-adv-x="841" >
<font-face units-per-em="2048" ascent="1638" descent="-410" />
<missing-glyph horiz-adv-x="419" />
<glyph horiz-adv-x="2048" />
<glyph horiz-adv-x="2048" />
<glyph unicode="&#xd;" horiz-adv-x="681" />
<glyph unicode=" "  horiz-adv-x="419" />
<glyph unicode="&#x09;" horiz-adv-x="419" />
<glyph unicode="&#xa0;" horiz-adv-x="419" />
<glyph unicode="!" horiz-adv-x="516" d="M151.5 106.5q8.5 51.5 50.5 87t92 35.5t81 -35.5t22.5 -87t-50.5 -87t-92 -35.5t-81 35.5t-22.5 87zM217 371l184 1173h205l-184 -1173h-205z" />
<glyph unicode="&#x22;" horiz-adv-x="512" d="M231 1081l48 463h176l-97 -463h-127zM500 1081l47 463h176l-96 -463h-127z" />
<glyph unicode="#" d="M-25 0l248 528h-219l53 121h222l118 254h-223l53 121h224l243 520h113l-242 -520h180l240 520h115l-242 -520h227l-53 -121h-229l-119 -254h229l-49 -121h-235l-246 -528h-113l246 528h-178l-250 -528h-113zM393 649h178l119 254h-180z" />
<glyph unicode="$" d="M109 233l182 82q16 -143 151 -143q170 0 207 231q6 33 5 59.5t-3 47t-12 40t-18.5 32t-28 29t-29.5 24.5t-37.5 27.5t-40.5 29.5q-45 31 -74.5 53.5t-61.5 51t-50 54.5t-34.5 59.5t-22.5 69.5t-5 82t9 99q25 158 121 263.5t249 119.5l23 133h92l-22 -133 q115 -8 183.5 -65.5t80.5 -161.5l-172 -94q-2 66 -45 107.5t-113 41.5q-88 0 -136 -55t-63 -146q-4 -25 -4 -48t1 -40.5t10.5 -37t14.5 -32t20.5 -28.5t23.5 -25.5t29.5 -25.5t31 -22.5t35 -25t35.5 -24.5q49 -35 79 -57.5t60.5 -53t45 -59t25.5 -67.5t10 -86t-11 -107 q-61 -397 -385 -432l-23 -137h-92l23 137q-119 10 -181.5 65.5t-82.5 167.5z" />
<glyph unicode="%" horiz-adv-x="1132" d="M119 0l1009 1544h127l-1009 -1544h-127zM262 1036q0 45 3 81t11 79q8 55 17.5 97t31 95.5t49 89t74 60.5t105.5 25q49 0 84 -16.5t53.5 -46.5t27.5 -63.5t9 -79.5t-3 -81t-9 -80q-10 -53 -19.5 -95t-31 -96.5t-49 -90t-73.5 -60.5t-106 -25q-49 0 -84 16.5t-53 47.5 t-27.5 64.5t-9.5 78.5zM397 1036.5q0 -20.5 4.5 -34t10.5 -25.5t17 -18.5t26.5 -6.5t29 6.5t23.5 18.5t18.5 25.5t15.5 34t11 35.5t9 38t7 34t4 30.5t3.5 21.5t4.5 21.5t4 31t4 34t3 36.5v34.5t-4 34t-10.5 26.5t-17.5 19.5t-26.5 6.5t-28.5 -6.5t-23.5 -19.5t-18.5 -26.5 t-15.5 -34t-11.5 -34.5t-9 -36.5t-7 -34t-4 -31t-3 -21.5t-4 -21.5t-4.5 -30.5t-4.5 -34t-3 -38v-35.5zM647 188q0 45 4 81t11 79q8 55 18 97t31.5 95.5t49 89.5t74 60.5t103.5 24.5q49 0 84 -16.5t53.5 -46t28.5 -63.5t10 -80t-4 -81t-10 -80q-8 -53 -18.5 -95t-32 -96.5 t-49 -90t-73.5 -60t-104 -24.5q-49 0 -85 16t-53 47t-27.5 64.5t-10.5 78.5zM782 225.5q0 -14.5 1 -35t5.5 -34t10.5 -26.5t17 -19.5t25.5 -6.5t28 6.5t23.5 19.5t19.5 26.5t15.5 34t11 35t9 38t6 34.5t5.5 30.5t3.5 21.5t3 21.5t5 30t5 34t3 37.5t-1 34.5t-5 34t-10.5 26 t-17.5 18.5t-25.5 6t-27.5 -6t-23.5 -18.5t-19.5 -26t-15.5 -34t-11.5 -34.5t-9 -37.5t-6 -34t-5 -30t-3 -21.5t-3 -21.5t-5.5 -30.5t-5.5 -34.5t-3 -38z" />
<glyph unicode="&#x26;" horiz-adv-x="1011" d="M109 365q33 199 280 413q-92 186 -65 363q20 129 116.5 212t225.5 83q133 0 202.5 -74t46.5 -205q-16 -115 -91.5 -208t-200.5 -199l149 -336l156 180l114 -107l-200 -229l123 -258h-228l-55 121q-57 -68 -133 -104.5t-156 -36.5q-145 0 -227 115.5t-57 269.5zM307 373 q-14 -86 25 -151.5t114 -65.5q92 0 172 106l-155 356q-70 -61 -108 -116.5t-48 -128.5zM510 1102q2 -27 3 -42.5t9 -41t12.5 -38.5l13.5 -39t13 -38l12 12q53 45 80 72t57.5 75t37.5 95q10 53 -14.5 88t-78.5 35q-51 0 -92 -42t-49 -93q-6 -16 -4 -43z" />
<glyph unicode="'" horiz-adv-x="512" d="M365 1081l47 463h176l-96 -463h-127z" />
<glyph unicode="(" horiz-adv-x="565" d="M193 680q73 465 321 885l182 -47q-252 -467 -307 -826q-68 -416 39 -874l-199 -49q-111 449 -36 911z" />
<glyph unicode=")" horiz-adv-x="565" d="M80 -182q250 459 317 874q55 358 -49 826l199 47q117 -420 43 -885q-74 -463 -328 -911z" />
<glyph unicode="*" horiz-adv-x="731" d="M229 1079l254 131l-213 123l52 74l208 -135l35 272h80l-43 -272l250 143l33 -69l-258 -136l215 -131l-54 -69l-204 137l-35 -264h-88l51 270l-246 -143z" />
<glyph unicode="+" horiz-adv-x="1024" d="M162 453l22 143h351l69 442h144l-70 -442h352l-22 -143h-353l-71 -449h-144l72 449h-350z" />
<glyph unicode="," horiz-adv-x="419" d="M-37 -348l227 565l158 -51l-285 -543z" />
<glyph unicode="-" horiz-adv-x="495" d="M137 453l25 155h364l-24 -155h-365z" />
<glyph unicode="." horiz-adv-x="419" d="M104 109q8 49 50.5 84.5t92.5 35.5t80.5 -35.5t22.5 -84.5q-8 -51 -49 -88t-92 -37t-82 36.5t-23 88.5z" />
<glyph unicode="/" horiz-adv-x="833" d="M-92 -211l1093 1911h162l-1089 -1911h-166z" />
<glyph unicode="0" d="M152 318.5q-2 64.5 0 108.5t9 113.5t12 103.5t15 95q4 23 6.5 33t4.5 33q10 61 15 95t19.5 103.5t26.5 113.5t34.5 108.5t46.5 106.5t58.5 90t73.5 76t89 46.5t107.5 18.5t101.5 -18.5t73.5 -46.5t49 -76t30 -90t12.5 -106.5t1 -108.5t-9 -113.5t-13.5 -103.5t-15.5 -95 q-2 -23 -4 -33t-6 -33q-8 -61 -14.5 -95t-20.5 -103.5t-26.5 -113.5t-35 -108.5t-46 -106.5t-57.5 -90t-72.5 -76t-90 -46t-108 -18t-101.5 18t-74.5 46t-49 76t-29.5 90t-12 106.5zM348 347q2 -50 11.5 -94t32 -65.5t57.5 -21.5q41 0 74.5 33.5t57 85t46 137.5t36 161.5 t31.5 188.5q14 92 23.5 157.5t16.5 141.5t5 126t-11 94t-31.5 65.5t-55.5 21.5q-41 0 -76 -33.5t-58.5 -85t-45 -137.5t-35.5 -161.5t-31 -188.5q-16 -92 -25.5 -157.5t-16.5 -141.5t-5 -126z" />
<glyph unicode="1" d="M322 0l217 1366h-152l27 178h352l-244 -1544h-200z" />
<glyph unicode="2" d="M76 0l499 793q152 250 175 401q12 76 -11.5 130t-95.5 54q-29 0 -52.5 -12t-39.5 -36.5t-28.5 -46t-20.5 -57.5t-12.5 -54.5t-8.5 -52.5t-4 -36l-6 -41h-209l8 56q12 84 27.5 143t45.5 125t71 105.5t106.5 65.5t153.5 26q184 0 248.5 -96.5t33.5 -284.5 q-39 -256 -385 -754l-170 -250h383l-28 -178h-680z" />
<glyph unicode="3" d="M137 340l8 47h197l-8 -49q-12 -74 11.5 -123t90.5 -49q35 0 63.5 13.5t47 40t33 51t23.5 64.5t13.5 61.5t10.5 58.5q8 68 8 126t-38 95t-112 35h-59l29 184h24q127 0 177.5 51t70.5 184q6 37 9 59.5t3 62.5t-7 63.5t-28.5 43t-54.5 19.5q-121 0 -153 -200l-9 -48h-196 l4 15q12 78 26.5 134t42 112.5t66.5 92.5t99.5 57.5t142.5 21.5q94 0 154.5 -31t85 -85t29.5 -127t-11 -157q-10 -68 -22.5 -113.5t-37 -102t-67.5 -93.5t-103 -55l-2 -4q78 -20 114 -78t34 -128.5t-12 -150.5q-72 -457 -426 -456q-172 0 -234.5 91t-36.5 267z" />
<glyph unicode="4" d="M127 424l27 176l565 944h201l-152 -969h98l-24 -151h-99l-67 -424h-201l68 424h-416zM313 575h254l103 656h-4z" />
<glyph unicode="5" d="M92 45l84 182q2 -2 15.5 -9t16.5 -9t14 -9t16.5 -9.5t15.5 -6.5t17.5 -6t16.5 -5t18 -4t19.5 -2t20.5 -1q63 0 116.5 33.5t86.5 88t53.5 110t28.5 112.5q23 141 -29.5 222t-189.5 81q-51 0 -129 -18l209 749h491l-27 -178h-333l-111 -389q201 8 284 -110.5t50 -323.5 q-18 -113 -56 -208t-98.5 -177t-156 -129t-211.5 -47q-102 0 -232 63z" />
<glyph unicode="6" d="M148.5 263.5q-1.5 64.5 4 118.5t15.5 122q23 141 60.5 263t104 251t116 212t151.5 243q31 46 45 71h221l-405 -659l4 -4q88 70 168 69q63 0 106 -21.5t64.5 -63.5t34 -86t10.5 -105.5t-7 -106.5t-14 -102q-12 -82 -27.5 -142.5t-46 -129t-71.5 -111.5t-108.5 -71.5 t-153.5 -28.5q-74 0 -127 21.5t-82 62t-45 87t-17.5 111zM371 465q-47 -299 80 -299q120 0 167 297v8q6 37 9.5 58.5t6.5 61.5t0 65.5t-11.5 53t-29 42t-48.5 14.5q-16 0 -25.5 -1t-34 -16.5t-42 -43t-38 -90t-34.5 -150.5z" />
<glyph unicode="7" d="M78 0l647 1366h-430l27 178h690l-713 -1544h-221z" />
<glyph unicode="8" d="M143 266q-4 82 15 168q6 49 12 81t19.5 80t31 81t42 67.5t60 58.5t80.5 34v4q-162 55 -114 344q27 178 111.5 278.5t254.5 100.5q184 0 245 -92.5t30 -286.5q-47 -289 -223 -346v-2q55 -14 87.5 -53.5t41 -96.5t6.5 -108.5t-13 -114.5q-12 -80 -28.5 -141.5t-48 -128 t-73.5 -110.5t-108.5 -72.5t-150.5 -28.5q-100 0 -163.5 38.5t-86.5 101t-27 144.5zM365 424q-42 -258 81 -258q127 0 168 258q4 31 5.5 40t6.5 45t4 52.5t-1 47t-7.5 47t-17.5 36t-27.5 27.5t-41.5 8q-35 0 -64 -22.5t-45 -51t-29.5 -76t-18.5 -74t-11 -67.5q-2 -8 -2 -12z M483.5 1070q-4.5 -52 17 -97t68.5 -45q35 0 64 25.5t45 66.5t25.5 74.5t15.5 68.5q35 215 -78 215q-115 0 -149 -215q-4 -41 -8.5 -93z" />
<glyph unicode="9" d="M209 0l409 645l-4 4q-74 -61 -165 -61q-57 0 -99.5 19.5t-64 56t-33.5 78.5t-13 96.5t3 99.5t12 98q10 61 18.5 105.5t25.5 103t36.5 100t51.5 86t70 71t92 44t119.5 17.5t113.5 -17.5t79 -44t49.5 -69.5t24.5 -85t5 -99.5t-6 -103.5t-15 -106q-37 -233 -120 -415.5 t-247 -438.5l-119 -184h-223zM454 883.5q3 -25.5 11 -54t27.5 -43t50.5 -14.5q35 0 64.5 22.5t46 51t29.5 76t18.5 74t11.5 69.5q2 10 2 14q49 299 -76 299q-31 0 -55.5 -15t-42 -47t-29.5 -59.5t-21.5 -71.5t-13.5 -63.5t-9 -54.5t-8 -54.5t-6 -61.5t0 -67.5z" />
<glyph unicode=":" horiz-adv-x="419" d="M104 109q8 49 50.5 84.5t92.5 35.5t80.5 -35.5t22.5 -84.5q-8 -51 -49 -88t-92 -37t-82 36.5t-23 88.5zM236 928q8 49 49 85t92 36t81.5 -36t22.5 -85q-8 -51 -50 -88t-93 -37t-81 37t-21 88z" />
<glyph unicode=";" horiz-adv-x="419" d="M-35 -348l228 565l157 -51l-282 -543zM236 928q8 49 49 85t92 36t81.5 -36t22.5 -85q-8 -51 -50 -88t-93 -37t-81 37t-21 88z" />
<glyph unicode="&#x3c;" horiz-adv-x="1024" d="M162 455l20 131l922 475l-25 -150l-747 -391l624 -391l-24 -149z" />
<glyph unicode="=" horiz-adv-x="1024" d="M131 254l23 143h845l-22 -143h-846zM193 643l22 143h846l-23 -143h-845z" />
<glyph unicode="&#x3e;" horiz-adv-x="1024" d="M86 -20l25 149l747 391l-625 391l25 150l770 -475l-20 -131z" />
<glyph unicode="?" horiz-adv-x="698" d="M233.5 106.5q8.5 51.5 50.5 87t92 35.5t80.5 -35.5t22.5 -87t-50 -87t-92 -35.5t-81 35.5t-22.5 87zM254 1163l4 25q12 72 23.5 119t36 100t57.5 85t88 52.5t127 20.5q59 0 104 -13.5t74 -36t45 -58.5t23.5 -71.5t6.5 -88t-6.5 -94.5t-15.5 -101q-8 -53 -14 -86 t-20.5 -88.5t-35 -91t-48 -72.5t-69.5 -54.5t-91 -17.5l-54 -327h-180l74 464l47 -2q43 0 76 15.5t51 36t31.5 59.5t19.5 65.5t13 75.5q2 6 6 30t6 39t6 44t4 47v44t-5 42t-13.5 31.5t-22.5 24t-33 8.5q-31 0 -53 -15.5t-34.5 -47.5t-16.5 -53.5t-10 -58.5q-2 -10 -2 -14 l-7 -37h-192z" />
<glyph unicode="@" horiz-adv-x="1638" d="M180 780q35 213 171 394.5t337 286t418 104.5q141 0 264 -49.5t209 -135.5t126 -211t17 -266q-14 -94 -68.5 -200.5t-132 -197.5t-183 -150.5t-210.5 -59.5q-59 0 -106 27.5t-57 80.5q-55 -49 -126 -76.5t-139 -27.5q-129 0 -195.5 91t-45.5 222q18 104 73.5 216 t136.5 205t189.5 152.5t218.5 59.5q78 0 135 -35.5t80 -103.5l45 98h142l-314 -633q-39 -74 -43 -106q-4 -27 10.5 -44.5t41.5 -17.5q49 0 111.5 35t125 97.5t113.5 162t67 213.5q27 162 -37.5 284t-189.5 182.5t-285 60.5q-285 0 -505 -195.5t-265 -478.5 q-43 -276 120 -467t443 -191q166 0 325 69t267 196h129q-129 -180 -330.5 -285.5t-410.5 -105.5q-223 0 -391 107.5t-243 291.5t-38 401zM629 623q-12 -82 18.5 -136.5t104.5 -54.5t149.5 61.5t132 148.5t94 176t48.5 153q10 61 -22 101t-95 40q-102 0 -199.5 -84 t-156 -194.5t-74.5 -210.5z" />
<glyph unicode="A" horiz-adv-x="847" d="M8 0l580 1544h162l88 -1544h-207l-10 301h-308l-104 -301h-201zM371 461h245l-6 223l11 561h-5z" />
<glyph unicode="B" horiz-adv-x="856" d="M125 0l244 1544h256q201 0 263 -102q40 -66 39 -175q0 -62 -12 -137q-8 -63 -24.5 -112t-44 -98.5t-72.5 -82t-106 -49.5v-4q118 -39 150 -129q19 -53 18 -124q0 -50 -9 -109q-35 -219 -141 -320.5t-315 -101.5h-246zM346 174q11 -1 22 -1q110 -1 164 57q58 62 78 198 q9 56 9 100q0 68 -21 108q-34 65 -160 64h-8zM457 864q10 0 20 -1q115 0 164 65q53 70 76 211q5 34 5 65q0 58 -20 102q-31 64 -125 64h-6h-34z" />
<glyph unicode="C" horiz-adv-x="755" d="M205 748q12 78 25.5 143t39 152t55 157t75.5 140.5t100.5 117.5t130.5 77t162 30q100 0 172 -45l-31 -187q-72 39 -125 39q-59 0 -109.5 -24.5t-86 -61.5t-66.5 -95t-49.5 -106.5t-35 -119t-23.5 -108.5t-15 -95q-8 -53 -14 -97q-7 -45 -10 -109q-1 -26 -1 -49 q1 -35 3 -65q4 -50 18 -102.5t38.5 -87.5t67.5 -57.5t101 -22.5q66 0 129 31l-29 -180q-74 -43 -172 -43q-375 0 -375 484q0 126 25 284z" />
<glyph unicode="D" horiz-adv-x="954" d="M125 0l244 1544h229q51 0 83 -1t79 -9t75.5 -22.5t65.5 -43t56.5 -68.5t38 -100.5t22.5 -137.5q2 -31 2 -66q0 -54 -4 -118q-6 -106 -27 -233q-18 -117 -42.5 -213t-51.5 -168.5t-63.5 -128t-69.5 -94.5t-81 -65.5t-89 -41t-100.5 -22.5t-106.5 -10t-119 -2h-141z M356 174h17q43 0 81 8q46 10 80.5 25.5t64.5 46.5t49.5 56.5t38 71.5t28.5 76.5t21.5 85t16.5 84t13 87.5l6 30q2 12 6 41q8 49 12.5 76t10.5 79t7 83t1 77t-8 75.5t-19.5 65.5t-32 57.5t-48 40t-66.5 25.5q-30 5 -67 5h-21z" />
<glyph unicode="E" horiz-adv-x="710" d="M125 0l244 1544h551l-27 -178h-346l-78 -485h309l-28 -179h-310l-82 -524h347l-29 -178h-551z" />
<glyph unicode="F" horiz-adv-x="700" d="M125 0l244 1544h555l-27 -178h-350l-78 -485h315l-28 -179h-316l-110 -702h-205z" />
<glyph unicode="G" horiz-adv-x="942" d="M170 422q4 86 12 165t25 181q16 104 31.5 181t39 165t50 150.5t65.5 122t85 96.5t109.5 59.5t137.5 22.5q160 0 235.5 -78t92.5 -238l-209 -80q0 47 -5 77t-19.5 61.5t-44.5 48t-75 16.5q-41 0 -73.5 -17.5t-59 -57.5t-45 -85t-37 -121.5t-31 -145t-28.5 -175.5 q-25 -156 -33 -268q-5 -65 -5 -113q0 -36 3 -63q6 -62 25.5 -97.5t41 -46t52.5 -10.5q33 0 53.5 4t50 24.5t50 58.5t44 112.5t40.5 181.5l12 84h-172l28 178h377l-4 -24q-4 -23 -14 -93.5t-15.5 -105.5t-19.5 -105.5t-26.5 -109.5t-35 -100.5t-47 -97.5t-59.5 -79t-75 -65.5 t-92 -38.5t-113 -16q-76 0 -133.5 21.5t-94.5 57t-59.5 94t-30.5 121.5q-5 41 -5 93q0 26 1 55z" />
<glyph unicode="H" horiz-adv-x="968" d="M125 0l244 1544h204l-94 -602h309l95 602h204l-243 -1544h-205l121 764h-309l-121 -764h-205z" />
<glyph unicode="I" horiz-adv-x="454" d="M125 0l244 1544h204l-243 -1544h-205z" />
<glyph unicode="J" horiz-adv-x="620" d="M20 20l33 209q80 -53 127 -53q39 0 69 13.5t46 32t29.5 52t17.5 56t10 63.5l183 1151h204l-182 -1161q-12 -74 -26.5 -127t-41 -108.5t-64.5 -90t-97.5 -56t-139.5 -21.5q-102 0 -168 40z" />
<glyph unicode="K" horiz-adv-x="868" d="M125 0l244 1544h209l-117 -741l405 741h211l-420 -747l201 -797h-235l-164 782l-125 -782h-209z" />
<glyph unicode="L" horiz-adv-x="677" d="M125 0l244 1544h204l-215 -1366h344l-28 -178h-549z" />
<glyph unicode="M" horiz-adv-x="1148" d="M49 0l371 1544h176l43 -1114h4l16 64l121 370l240 680h180l-100 -1544h-201l55 575l33 287l27 203h-4l-70 -221l-293 -844h-141l-31 1065h-4l-227 -1065h-195z" />
<glyph unicode="N" horiz-adv-x="966" d="M125 0l244 1544h196l176 -1173l4 4l50 618l86 551h204l-243 -1544h-191l-172 1190l-4 -4l-4 -101l-51 -518l-90 -567h-205z" />
<glyph unicode="O" horiz-adv-x="974" d="M171 441q1 48 8 119t13.5 111t16.5 101q12 82 21.5 133t32 143.5t47 154t65.5 136t90 119.5t118.5 76t151.5 31q63 0 114.5 -19.5t86.5 -48.5t57.5 -77t34.5 -93t16 -111q4 -54 4 -95v-18q-1 -48 -8.5 -119t-12.5 -110.5t-15 -101.5q-14 -82 -23.5 -133t-32 -143.5 t-46 -153.5t-65.5 -136t-90 -120t-118 -75.5t-154 -30.5q-63 0 -114.5 19t-85 48t-57 77t-36 93t-16.5 111q-3 52 -3 93v20zM390 348q5 -51 18.5 -93t40 -62.5t65.5 -20.5q59 0 104.5 45t78 135t54 185.5t44.5 234.5q14 90 22 158q7 69 13 142q3 36 3 67q-1 31 -3 57 q-6 51 -18.5 93t-40 62.5t-66.5 20.5q-57 0 -103.5 -45t-78 -135t-54.5 -185.5t-43 -234.5q-14 -90 -22.5 -158.5t-13.5 -141.5q-2 -36 -2 -67t2 -57z" />
<glyph unicode="P" horiz-adv-x="794" d="M125 0l244 1544h245q37 0 61.5 -1t59.5 -5t59.5 -12t53.5 -23.5t47 -36t35.5 -52.5t25.5 -72q7 -35 6 -80v-12q-1 -54 -12 -120q-38 -240 -158 -347q-112 -100 -322 -100q-16 0 -32 1l-108 -684h-205zM465 858q14 -1 27 -1q104 1 158 57q60 64 81 200q7 44 7 81 q0 175 -163 175h-28z" />
<glyph unicode="Q" horiz-adv-x="980" d="M171 441q1 48 8 119t13.5 111t16.5 101q12 82 21.5 133t32 143.5t47 154t65.5 136t90 119.5t118.5 76t151.5 31q63 0 114.5 -19.5t86.5 -48.5t57.5 -77t34.5 -93t16 -111q4 -53 4 -95v-18q-1 -48 -8.5 -119t-12.5 -110.5t-15 -101.5q-66 -414 -189 -604l109 -193 l-148 -94l-84 162q-86 -63 -217 -63q-63 0 -114.5 19t-85 48t-57 77t-36 93t-16.5 111q-3 52 -3 93v20zM390 348q5 -51 18.5 -93t40 -62.5t65.5 -20.5q55 0 90 33l-100 186l141 98l60 -110h4q59 229 86 393q14 90 22 158.5t13 141.5q3 36 3 67t-3 57q-5 51 -18 93 t-40.5 62.5t-66.5 20.5q-57 0 -103.5 -45t-78 -135t-54.5 -185.5t-43 -234.5q-14 -90 -22.5 -158.5t-13.5 -141.5q-2 -36 -2 -67t2 -57z" />
<glyph unicode="R" horiz-adv-x="851" d="M125 0l244 1544h245q33 0 54.5 -1t54.5 -5t55.5 -10t51 -20.5t47 -34t36 -50t24.5 -68.5q7 -39 8 -91v-9q0 -49 -9 -106q-10 -61 -29.5 -120.5t-51.5 -120t-83 -103.5t-113 -53l166 -752h-213l-159 756h-4l-119 -756h-205zM467 860q10 -1 20 -1q185 0 224 245 q11 84 11 138q0 57 -34 93q-33 35 -101 35h-7h-33z" />
<glyph unicode="S" horiz-adv-x="724" d="M96 53l33 207q96 -80 190 -80q90 0 144.5 61.5t71.5 153.5q3 22 3 43q0 38 -10 74q-14 56 -45.5 99.5t-70.5 90t-78 89.5t-68.5 101t-41.5 122q-6 33 -7 73q0 38 6 82q29 172 136.5 284t273.5 112q131 -1 209 -52l-35 -206q-79 65 -161 65h-3q-82 0 -141.5 -58.5 t-71.5 -139.5q-3 -22 -3 -43q0 -68 34 -125l129 -170q98 -120 134 -214q22 -57 22 -134q0 -49 -9 -105q-27 -170 -144.5 -286.5t-283.5 -116.5q-133 0 -213 73z" />
<glyph unicode="T" horiz-adv-x="661" d="M209 1366l27 178h677l-26 -178h-232l-217 -1366h-205l218 1366h-242z" />
<glyph unicode="U" horiz-adv-x="956" d="M179 259q1 56 6 104.5t16 115.5l168 1065h204l-178 -1132q-10 -61 -10 -106q0 -56 16 -84q29 -50 99 -50q98 0 134 52t56 165l182 1155h205l-172 -1095q-8 -47 -12 -71t-14.5 -70t-20.5 -71.5t-28.5 -65.5t-39 -63.5t-52 -51t-68.5 -42t-86 -24.5t-109 -10q-68 0 -119 13 t-84.5 35.5t-53.5 60.5t-30 76q-9 34 -9 83v11z" />
<glyph unicode="V" horiz-adv-x="792" d="M258 1544h205l-6 -1161h4l24 96l164 520l180 545h195l-547 -1544h-164z" />
<glyph unicode="W" horiz-adv-x="1212" d="M248 1544h201l-21 -1046l-8 -115h4l143 518l207 643h160l-14 -1151h4l135 496l196 655h199l-514 -1544h-164l-2 719l14 389l5 39h-5l-110 -416l-240 -731h-168z" />
<glyph unicode="X" horiz-adv-x="874" d="M49 0l418 784l-156 760h203l55 -274q37 -182 37 -283h4l90 213l162 344h209l-403 -760l159 -784h-209l-51 270q-35 190 -35 289v19h-4q-12 -63 -67 -179l-191 -399h-221z" />
<glyph unicode="Y" horiz-adv-x="802" d="M248 1544h221l76 -715h4l65 199l211 516h219l-426 -878l-104 -666h-205l105 666z" />
<glyph unicode="Z" horiz-adv-x="804" d="M31 0l686 1366h-414l27 178h682l-680 -1366h440l-29 -178h-712z" />
<glyph unicode="[" horiz-adv-x="614" d="M45 -211l277 1755h448l-20 -139h-273l-235 -1477h272l-20 -139h-449z" />
<glyph unicode="\" horiz-adv-x="512" d="M47 1700h162l491 -1911h-165z" />
<glyph unicode="]" horiz-adv-x="614" d="M55 -211l21 139h272l236 1477h-273l21 139h448l-276 -1755h-449z" />
<glyph unicode="^" horiz-adv-x="1024" d="M199 690l506 854h100l239 -854h-137l-182 664l-391 -664h-135z" />
<glyph unicode="_" horiz-adv-x="1024" d="M-41 -256l16 102h1024l-16 -102h-1024z" />
<glyph unicode="`" horiz-adv-x="573" d="M362 1440l152 88l121 -305l-113 -60z" />
<glyph unicode="a" horiz-adv-x="778" d="M119 244q-1 13 -1 27q0 35 4 79q5 62 9 96.5t12 83.5q10 57 18.5 99.5t26 111t42 116.5t57 95t82 73t106.5 26q125 0 164 -131h4l19 114h192l-164 -1034h-192l20 133h-4q-45 -76 -91 -112.5t-122 -36.5q-49 0 -85 22.5t-56.5 55t-29.5 85t-11 97.5zM314 330q1 -22 1 -51 t7.5 -48.5t17.5 -38t27.5 -27.5t40.5 -9q123 0 176 348q2 10 2 14t2 14q18 110 18 185q0 162 -84 162q-23 0 -43 -9.5t-36.5 -28t-29 -38t-22.5 -49t-17 -51t-14.5 -55.5t-9.5 -50t-7 -46t-5 -34t-5 -33.5t-8 -47t-7 -51.5q-4 -28 -5 -47q1 -5 1 -9z" />
<glyph unicode="b" horiz-adv-x="778" d="M88 0l268 1700h193l-123 -780h4q43 66 89 98.5t116 32.5q51 0 88 -20.5t57.5 -51.5t31.5 -80t13 -91q1 -14 0 -30q0 -32 -2 -70q-4 -58 -8 -93t-12 -85q-10 -59 -18.5 -101t-26 -113.5t-42 -123t-57 -102.5t-81 -78.5t-105.5 -27.5q-78 0 -111.5 36.5t-56.5 112.5h-4 l-20 -133h-193zM354 504q-18 -110 -18 -185q0 -162 84 -163q23 0 43 9t36.5 27.5t29 38t22.5 50t17 52t14.5 55.5t10.5 50.5t7 46t4 33.5t5 34t8.5 46t7.5 50q3 27 3 46v10q-1 22 -1 51t-7.5 48.5t-17.5 38t-27.5 28t-39.5 9.5q-123 0 -177 -347q-2 -10 -2 -14t-2 -14z" />
<glyph unicode="c" horiz-adv-x="569" d="M139 508q12 78 26.5 140.5t45.5 141t71 132t105.5 91.5t146 38t148.5 -35l-31 -195h-4q-25 47 -84 49q-39 0 -71.5 -17t-56 -49t-40 -63.5t-28 -77t-16.5 -73t-11 -64.5q-15 -93 -14 -161q0 -201 123 -201q45 0 104 39l-29 -178q-78 -41 -162 -41q-240 0 -240 325 q0 88 17 199z" />
<glyph unicode="d" horiz-adv-x="778" d="M119 244q-1 13 -1 27q0 35 4 79q5 62 9 96.5t12 83.5q10 57 18.5 99.5t26 111t42 116.5t57 95t82 73t106.5 26q70 0 105.5 -33t58.5 -98h4l123 780h192l-268 -1700h-192l20 133h-4q-45 -76 -91 -112.5t-122 -36.5q-49 0 -85 22.5t-56.5 55t-29.5 85t-11 97.5zM314 330 q1 -22 1 -51t7.5 -48.5t17.5 -38t27.5 -27.5t40.5 -9q123 0 176 348q2 10 2 14t2 14q18 110 18 185q0 162 -84 162q-23 0 -43 -9.5t-36.5 -28t-29 -38t-22.5 -49t-17 -51t-14.5 -55.5t-9.5 -50t-7 -46t-5 -34t-5 -33.5t-8 -47t-7 -51.5q-4 -28 -5 -47q1 -5 1 -9z" />
<glyph unicode="e" horiz-adv-x="739" d="M121 277.5q0 64.5 4 116.5t14 116q12 78 26.5 139.5t45.5 140t71 132t105.5 91.5t147.5 38q246 0 245 -333q0 -91 -18 -208l-4 -31h-426q0 -2 -2 -8q-14 -91 -14 -156q0 -159 85 -159q121 0 152 192h178q-25 -158 -116 -261t-242 -103q-70 0 -120 22.5t-76.5 65.5t-41 92 t-14.5 113.5zM354 616h230q4 29 6 48.5t5 55.5q1 15 1 29q0 19 -2 31q-4 24 -12.5 48t-26.5 37.5t-47 13.5q-33 0 -58.5 -18.5t-41 -42t-26.5 -64.5t-15.5 -63.5t-10.5 -59.5q-2 -11 -2 -15z" />
<glyph unicode="f" horiz-adv-x="509" d="M139 0l140 883h-97l25 151h96l53 334q10 63 19.5 105.5t31 92.5t50 79.5t77 50t111.5 20.5q61 0 125 -28l-33 -201q-39 24 -72 24h-3q-14 0 -26.5 -3t-22 -7t-18.5 -13l-14.5 -14.5t-10.5 -19.5t-8 -19t-6 -22.5t-4 -22t-4 -23.5t-3 -21l-49 -312h159l-24 -151h-160 l-139 -883h-193z" />
<glyph unicode="g" horiz-adv-x="782" d="M51 -141l4 28h187q-4 -22 -4 -42q0 -37 14 -67q22 -46 88 -46q20 0 38.5 4t32 14t23.5 17.5t18.5 26t12.5 26.5t9 32.5t7 31.5t6.5 35t4.5 32l28 172h-4q-33 -66 -86 -103q-50 -36 -114 -36h-7q-51 0 -88 20.5t-58.5 52t-32.5 80.5t-13 91q-1 14 -1 30q0 32 3 72 q4 59 9 95t11 85q10 55 14.5 84t19.5 94.5t29.5 105.5t42 95t57.5 86t75 53.5t96 22.5q72 0 107.5 -35t58.5 -105l6 4l19 119h194l-166 -1042q-20 -135 -54 -222t-84 -132.5t-105.5 -61.5t-139.5 -16q-141 0 -211 78q-52 58 -52 156q0 30 5 65zM336 504q-18 -108 -18 -183 q0 -165 90 -165q29 0 52 14t40.5 43t30 55.5t21.5 69.5t14 65.5t10.5 63.5t7.5 45q18 115 18 194q0 173 -86 173q-125 0 -174 -338q-2 -14 -3 -18.5t-3 -18.5z" />
<glyph unicode="h" horiz-adv-x="794" d="M90 0l268 1700h193l-123 -785h4q90 135 230 136q51 0 85.5 -13.5t52.5 -41.5q18 -27 28 -55q9 -24 8 -60v-14q-2 -46 -5.5 -75.5t-11.5 -80.5l-112 -711h-193l113 715q5 31 5 56q0 108 -93 108q-35 0 -60.5 -15.5t-40 -34t-26 -53.5t-15.5 -55.5t-10 -56.5q-2 -12 -2 -19 l-102 -645h-193z" />
<glyph unicode="i" horiz-adv-x="368" d="M88 0l164 1034h192l-163 -1034h-193zM270 1348q8 53 52.5 90t97.5 37q51 0 83 -38q25 -30 25 -67q0 -11 -2 -22q-8 -53 -52 -91t-95 -38q-53 -1 -85 37q-26 30 -26 71q0 10 2 21z" />
<glyph unicode="j" horiz-adv-x="368" d="M20 -424l232 1458h192l-231 -1458h-193zM270 1348q8 53 52.5 90t97.5 37q51 -2 83 -40q25 -30 25 -67q0 -11 -2 -22q-8 -53 -52 -91q-42 -36 -90 -36h-5q-53 0 -85 37q-26 30 -26 71q0 10 2 21z" />
<glyph unicode="k" horiz-adv-x="808" d="M90 0l268 1700h193l-176 -1125h4l311 459h215l-336 -459l207 -575h-223l-180 549h-4l-86 -549h-193z" />
<glyph unicode="l" horiz-adv-x="368" d="M88 0l268 1700h193l-268 -1700h-193z" />
<glyph unicode="m" horiz-adv-x="1208" d="M88 0l164 1034h194l-20 -127h4q88 143 225 144q70 0 115 -38t49 -106h4q88 143 236 144q127 -1 167 -67q27 -45 28 -113q0 -32 -7 -70l-127 -801h-192l114 725q4 39 5.5 74t-19 57.5t-65.5 22.5q-23 0 -41.5 -4.5t-33 -14.5t-24.5 -18t-19 -25.5t-14.5 -28t-9.5 -34 t-6 -31.5t-6 -33.5t-4 -32.5l-105 -657h-192l110 702q4 33 5.5 43.5t3.5 38t-3.5 39t-14.5 27.5t-27.5 22.5t-44.5 6.5q-23 0 -41.5 -7.5t-31.5 -14.5t-24.5 -25.5t-17.5 -29.5t-13.5 -37t-9.5 -35t-8 -37.5t-6 -35.5l-104 -657h-193z" />
<glyph unicode="n" horiz-adv-x="794" d="M90 0l164 1034h192l-18 -119h4q90 135 230 136q49 0 84.5 -13.5t53.5 -41.5q16 -27 26 -55q9 -25 9 -65v-8q-1 -45 -4.5 -76.5t-11.5 -80.5l-112 -711h-193l113 715q5 31 5 56q0 108 -93 108q-35 0 -60.5 -15.5t-40 -34t-26 -53.5t-15.5 -55.5t-10 -56.5q-2 -12 -2 -19 l-102 -645h-193z" />
<glyph unicode="o" horiz-adv-x="768" d="M123 280.5q0 65.5 4 118t14 115.5q12 80 27.5 143.5t47.5 141.5t74 129t109.5 87t151.5 36q72 0 123 -23.5t78.5 -66.5t43 -93.5t15.5 -116t-4 -118.5t-14 -119q-12 -78 -27.5 -140.5t-47.5 -139t-74 -128t-109.5 -87t-151.5 -35.5q-72 0 -123 23.5t-78.5 66.5t-43 92 t-15.5 114.5zM315 283.5q0 -29.5 7.5 -49t17.5 -38t28.5 -27.5t41.5 -9q27 0 50 13t39.5 30.5t31 49.5t23.5 55.5t17.5 61.5t11.5 56t8 52t5 36q0 6 5 33.5t7 45t6 50.5t4 55.5v52t-7 49t-17 38t-28.5 27.5t-41.5 9q-27 0 -50 -13t-39.5 -30.5t-31 -49t-23.5 -55.5 t-17.5 -62.5t-11.5 -57t-8 -54.5t-5 -38q-2 -4 -6 -30.5t-7 -44t-6.5 -49.5t-3.5 -54.5v-52z" />
<glyph unicode="p" horiz-adv-x="778" d="M20 -424l232 1458h192l-20 -133h4q43 74 91 112t122 38q49 0 85 -22.5t56.5 -55.5t29.5 -85t11 -96q1 -15 1 -31q0 -33 -3 -75q-4 -61 -9 -96t-13 -84q-8 -59 -17.5 -101.5t-27 -111t-42 -116.5t-57 -95t-82 -72.5t-106.5 -25.5q-72 0 -107.5 32.5t-56.5 100.5h-4 l-86 -541h-193zM354 502q-18 -110 -18 -184q0 -162 84 -162q43 0 74.5 29.5t53 89t33 110.5t23.5 131q0 4 5 34t7 46t8 50q4 29 4 49v7q-1 23 -1 52.5t-7.5 49t-17.5 38t-27.5 28t-39.5 9.5q-123 0 -177 -349q-2 -10 -2 -14t-2 -14z" />
<glyph unicode="q" horiz-adv-x="778" d="M117 226q-1 14 -1 30q0 32 3 70q4 59 8 95t12 85q10 59 18.5 100t26 114t42 123t57 102t81 79t105.5 27q76 0 112.5 -38t55.5 -112h4l21 133h192l-231 -1458h-193l86 541h-4q-43 -68 -89 -100.5t-116 -32.5q-51 0 -88 20.5t-57.5 51t-31.5 79.5t-13 91zM313 330.5 q0 -21.5 1 -51t8.5 -49t17.5 -38t27.5 -27.5t40.5 -9q123 0 176 346q2 10 2 14t2 14q18 110 18 186q0 162 -84 163q-23 0 -43 -9.5t-36.5 -28t-29 -38t-22.5 -49t-17 -51t-14.5 -55.5t-10.5 -51t-7 -47t-4 -34t-5 -33.5t-8 -46t-7.5 -50.5t-4.5 -55.5z" />
<glyph unicode="r" horiz-adv-x="550" d="M90 0l164 1034h192l-20 -127h4q94 143 242 144l-29 -191l-33 2q-102 0 -154.5 -53t-68.5 -158l-102 -651h-195z" />
<glyph unicode="s" horiz-adv-x="565" d="M70 33l28 188q71 -65 148 -65h2q61 0 100 34.5t49 96.5q2 11 2 22q-1 36 -21 69q-26 42 -68 75.5t-84 72.5q-42 38 -66 100q-15 40 -15 87q0 26 5 55q20 123 110 203t211 80q98 0 168 -45l-29 -183q-53 55 -135 56q-55 0 -98 -30t-51 -81q-1 -8 -1 -17q1 -38 23 -70 q28 -40 69.5 -73t82.5 -70q40 -38 64 -102q14 -39 15 -84q0 -29 -6 -61q-20 -137 -113 -222t-231 -85q-88 0 -159 49z" />
<glyph unicode="t" horiz-adv-x="452" d="M129 0l139 883h-104l24 151h105l47 293h192l-47 -293h103l-25 -151h-102l-139 -883h-193z" />
<glyph unicode="u" horiz-adv-x="796" d="M135 216v16q0 67 15 145l104 657h192l-102 -647q-2 -6 -4 -22q-4 -31 -6 -47.5t-4 -45t3 -45t14 -34t29.5 -25.5t49.5 -8q25 0 44 6t32.5 13t25 25.5t17.5 28t12 36t7 34.5t6 39t5 35l105 657h192l-110 -698q-27 -172 -108 -262t-246 -90q-102 0 -164 28.5t-84.5 79.5 t-24.5 124z" />
<glyph unicode="v" horiz-adv-x="733" d="M190 1034h205l15 -782h4l16 61l143 418l111 303h186l-436 -1034h-127z" />
<glyph unicode="w" horiz-adv-x="997" d="M158 1034h202l-4 -721l-2 -20h4l97 321l145 420h137l2 -721l-2 -20h4l113 385l125 356h188l-407 -1034h-131l-21 530l17 230h-4l-105 -371l-137 -389h-133z" />
<glyph unicode="x" horiz-adv-x="808" d="M29 0l344 547l-180 487h225l90 -354l72 154l116 200h201l-311 -487l196 -547h-227l-68 223q-37 141 -36 197h-5q-16 -74 -104 -227l-113 -193h-200z" />
<glyph unicode="y" horiz-adv-x="763" d="M55 -424l240 508l-123 950h215l37 -721h4l289 721h194l-653 -1458h-203z" />
<glyph unicode="z" horiz-adv-x="686" d="M29 0l495 862h-331l26 172h602l-483 -862h328l-27 -172h-610z" />
<glyph unicode="{" horiz-adv-x="528" d="M102 616l17 107q82 10 138 45t73 121l61 385q23 150 102.5 210t208.5 60h64l-18 -117q-90 -8 -134.5 -47t-54.5 -131l-53 -325q-16 -109 -65.5 -169.5t-166.5 -82.5v-4q109 -23 139.5 -83.5t12.5 -168.5l-51 -326q-18 -92 13.5 -131t119.5 -47l-19 -117h-63 q-131 0 -191.5 60.5t-35.5 210.5l61 385q10 86 -35 120.5t-123 44.5z" />
<glyph unicode="|" horiz-adv-x="512" d="M115 -438l325 2048h144l-326 -2048h-143z" />
<glyph unicode="}" horiz-adv-x="528" d="M-27 -205l19 117q92 8 135 47t55 131l51 326q18 109 67.5 169t166.5 83v4q-109 23 -139.5 83t-14.5 169l54 325q16 92 -14.5 131t-121.5 47l19 117h63q131 0 191.5 -60.5t38.5 -209.5l-62 -385q-12 -86 33 -121t125 -45l-16 -107q-82 -10 -138.5 -44.5t-72.5 -120.5 l-62 -385q-25 -150 -103.5 -210.5t-209.5 -60.5h-64z" />
<glyph unicode="~" horiz-adv-x="1024" d="M160 436q66 109 131 175.5t145 66.5q70 0 187 -72q8 -4 29.5 -16t30.5 -17.5t26.5 -14.5t29 -13t23.5 -7t22 -3q90 0 193 170l55 -97q-137 -227 -274 -227q-16 0 -38 6t-49.5 18.5t-44 20.5t-46 25.5t-35.5 19.5q-88 51 -133 51q-31 0 -59.5 -15t-55.5 -48t-42 -55.5 t-42 -65.5z" />
<glyph unicode="&#xa1;" horiz-adv-x="516" d="M92 -420l184 1174h205l-184 -1174h-205zM297 1020q8 49 50 85t92 36t81 -36t23 -85q-8 -51 -50 -88t-93.5 -37t-81 37t-21.5 88z" />
<glyph unicode="&#xa2;" d="M297 538.5q2 61.5 7 107.5t16.5 117t23.5 126t39 130t60.5 128t89 96t124.5 57l23 144h96l-24 -148q55 -8 92 -22l-31 -182q-27 27 -76 26q-35 0 -65.5 -17.5t-51 -51t-36 -64.5t-26.5 -79t-15 -72.5t-11 -63.5q-57 -358 97 -358q23 0 82 22l-29 -170q-41 -25 -102 -26 l-21 -134h-92l20 129q-55 16 -94 45t-58.5 72t-29.5 85t-8 103.5z" />
<glyph unicode="&#xa3;" d="M55 74q18 72 82.5 127t136.5 55l31 -2q51 72 64 152q12 76 -13 182h-180l14 80h152q-4 10 -10 30q-18 59 -26.5 90t-22 85.5t-17.5 94.5t-4 90t6 99q31 186 149 296t302 110q141 0 213 -81t55 -222l-172 -78q18 94 -8.5 153.5t-116.5 59.5q-88 0 -146.5 -55.5 t-70.5 -143.5q-8 -43 -8 -91t4 -88t13.5 -92.5t17.5 -86t22.5 -88t20.5 -82.5h198l-14 -80h-186q12 -68 2 -137q-23 -135 -88 -236q8 -4 28.5 -17.5t33.5 -20.5t32.5 -13t36.5 -6q49 0 86 69l157 -55q-96 -190 -247 -190q-72 0 -167.5 49t-131.5 49q-53 0 -80 -70z" />
<glyph unicode="&#xa4;" d="M129 561l29 103h69l27 167h-82l29 103h75q154 629 592 629q111 0 185 -45l-47 -170q-76 31 -127 30q-299 0 -406 -444h420l-29 -103h-411l-11 -69q-10 -63 -14 -98h391l-28 -103h-371q-10 -397 276 -397q61 0 125 22l-26 -174q-72 -33 -164 -32q-449 0 -412 581h-90z" />
<glyph unicode="&#xa5;" d="M188 541l17 102h241l3 23l-29 145h-189l17 102h151l-133 631h221l88 -713h5l61 197l203 516h219l-293 -631h166l-16 -102h-197l-70 -145l-2 -23h242l-16 -102h-242l-86 -541h-205l86 541h-242z" />
<glyph unicode="&#xa6;" horiz-adv-x="512" d="M156 -182l82 512h143l-82 -512h-143zM317 842l82 512h144l-82 -512h-144z" />
<glyph unicode="&#xa7;" horiz-adv-x="849" d="M115 49l6 39h209q-31 -195 92 -194q68 0 106.5 46t49.5 117q8 49 -2.5 87t-43 70t-55 48.5t-71.5 46.5q-10 6 -31 19q-25 16 -37 23t-32.5 22.5t-32 25t-28 24.5t-23.5 28.5t-17 31t-14.5 36t-8.5 42t-3 49t3 56.5q33 201 209 290q-111 80 -78 281q23 145 124.5 236.5 t244.5 91.5q154 0 221 -92t49 -248h-209q2 27 0 55.5t-8 53t-26.5 40t-53.5 15.5q-117 0 -141 -166q-16 -96 26 -144.5t142 -87.5q139 -61 193.5 -146t42.5 -202q-16 -96 -73 -185t-140 -141q100 -94 73 -260q-25 -158 -122 -249t-255 -91q-160 0 -235.5 86t-50.5 246z M385 692q-8 -45 2 -82t42 -68.5t53.5 -46.5t68.5 -44l29 -19q121 84 137 189q4 20 4 38.5t-2 33t-13.5 30.5t-16.5 25.5t-23.5 22.5t-24.5 18.5t-30.5 18.5t-31 16t-32.5 18l-45 24q-102 -76 -117 -174z" />
<glyph unicode="&#xa8;" horiz-adv-x="573" d="M219 1350q8 49 47 83.5t92 34.5q45 0 73 -33.5t22 -78.5q-8 -47 -47 -83t-84 -36q-49 0 -79 31.5t-24 81.5zM549 1350q8 49 47 83.5t92 34.5q45 0 72.5 -33.5t21.5 -78.5q-8 -47 -46 -83t-85 -36q-49 0 -78.5 31.5t-23.5 81.5z" />
<glyph unicode="&#xa9;" horiz-adv-x="1638" d="M150 774q35 215 169 397.5t333.5 288t416.5 105.5q215 0 381 -105.5t244 -288t43 -397.5q-35 -217 -170 -400.5t-334 -288.5t-416 -105q-215 0 -382 105t-243.5 288.5t-41.5 400.5zM279 772q-45 -283 116.5 -474.5t442.5 -188.5q283 -2 504 189t266 474q29 182 -34 335 t-202 241t-323 88q-281 0 -504 -192.5t-266 -471.5zM537 780q33 199 172 328t338 129q143 0 233 -81t92 -220h-133q2 90 -57.5 141t-151.5 51q-150 0 -243 -95t-115 -251q-25 -152 39.5 -253t212.5 -101q94 0 168.5 53.5t99.5 147.5h133q-37 -137 -156.5 -223.5 t-261.5 -86.5q-199 0 -300 131.5t-70 329.5z" />
<glyph unicode="&#xaa;" horiz-adv-x="352" d="M155 1123q3 44 6 69t9 61q6 35 11 59.5t15.5 65.5t26 70t37 57.5t53 44t68.5 15.5q78 0 108 -78h3l10 67h125l-99 -620h-125l13 80h-4q-27 -45 -56.5 -67.5t-81.5 -22.5q-37 0 -62.5 16t-36.5 47t-17 61.5t-3 74.5zM282 1132.5q1 -12.5 1 -31t5 -30.5t11 -23.5 t17.5 -16.5t25.5 -5q80 0 115 219q35 217 -45 217q-14 0 -27.5 -5t-24 -16t-18.5 -22.5t-14 -30t-10.5 -32t-8.5 -33.5t-6 -29.5t-5 -28t-3 -20.5t-3 -20.5t-4 -28.5t-4 -30.5t-2 -33z" />
<glyph unicode="&#xab;" horiz-adv-x="731" d="M137 532l336 455l84 -55l-299 -400l150 -407l-99 -51zM381 532l336 455l84 -55l-299 -400l149 -407l-98 -51z" />
<glyph unicode="&#xac;" horiz-adv-x="1024" d="M193 643l22 143h846l-86 -546h-144l64 403h-702z" />
<glyph unicode="&#xad;" horiz-adv-x="495" d="M137 453l25 155h364l-24 -155h-365z" />
<glyph unicode="&#xae;" horiz-adv-x="1638" d="M150 774q35 215 169 397.5t333.5 288t416.5 105.5q215 0 381 -105.5t244 -288t43 -397.5q-35 -217 -170 -400.5t-334 -288.5t-416 -105q-215 0 -382 105t-243.5 288.5t-41.5 400.5zM279 772q-45 -283 116.5 -474t442.5 -189q283 -2 504 189t266 474q29 182 -34 335 t-202 241t-323 88q-281 0 -504 -192.5t-266 -471.5zM557 330l139 891h389q51 0 78 -2t65 -13.5t66 -34.5q43 -27 62.5 -80t9.5 -110q-20 -129 -106 -187.5t-213 -62.5l202 -401h-143l-188 401h-173l-63 -401h-125zM760 827h151h42h46.5t44 2t47 6.5t41 11.5t39 19.5t30 27.5 t25.5 38.5t13 52.5q8 45 -5 75t-44 43t-63.5 17t-79.5 4h-240z" />
<glyph unicode="&#xaf;" horiz-adv-x="573" d="M180 1346l19 118h641l-19 -118h-641z" />
<glyph unicode="&#xb0;" horiz-adv-x="819" d="M299 1237q18 125 123.5 216t231.5 91t202 -90t57 -217q-20 -127 -124.5 -217t-231.5 -90t-202.5 90t-55.5 217zM426 1237q-12 -76 33 -128t118.5 -52t135 52t73.5 128q10 74 -33.5 127t-117.5 53t-136.5 -53t-72.5 -127z" />
<glyph unicode="&#xb1;" horiz-adv-x="1024" d="M90 4l23 143h845l-22 -143h-846zM182 575l23 144h350l49 319h144l-50 -319h353l-23 -144h-352l-53 -325h-144l53 325h-350z" />
<glyph unicode="&#xb2;" horiz-adv-x="505" d="M129 625l25 47l286 428q94 147 111 241q6 43 -7.5 75t-56.5 32q-16 0 -30.5 -7t-24.5 -21.5t-17 -27t-12.5 -34t-7.5 -32.5t-4 -30.5t-2 -21.5l-4 -25h-149l4 35q10 66 23 108t41 85t78 64.5t124 21.5q123 0 168 -58.5t26 -171.5q-25 -154 -245 -452l-109 -142h250 l-18 -114h-449z" />
<glyph unicode="&#xb3;" horiz-adv-x="505" d="M156 827l4 29h141l-4 -31q-8 -41 6 -69.5t55 -28.5q31 0 52.5 16.5t34 48t17.5 52t11 55.5q10 72 -7 114t-89 40h-39l18 110h17q84 0 115.5 30t43.5 112q4 27 5.5 44t0.5 43.5t-13.5 41t-37.5 14.5q-74 0 -92 -117l-4 -26h-141l10 8q10 121 60.5 185.5t181.5 64.5 q121 0 157.5 -63.5t18.5 -176.5q-6 -39 -13.5 -67.5t-23.5 -61.5t-46 -56.5t-71 -33.5v-4q53 -10 79 -44t24 -77t-6 -90q-20 -129 -85 -203t-196 -74q-115 0 -158 54.5t-26 160.5z" />
<glyph unicode="&#xb4;" horiz-adv-x="573" d="M330 1223l215 305l123 -88l-246 -277z" />
<glyph unicode="&#xb6;" horiz-adv-x="901" d="M182 1147q29 182 154 299q66 61 127 78.5t155 19.5h426l-280 -1773h-162l260 1636h-155l-261 -1636h-161l157 987q-129 -2 -206.5 114.5t-53.5 274.5z" />
<glyph unicode="&#xb7;" horiz-adv-x="419" d="M172 524q6 49 48 85t93.5 36t81 -36t23.5 -85q-8 -51 -50 -88t-93.5 -37t-81 37t-21.5 88z" />
<glyph unicode="&#xb8;" horiz-adv-x="573" d="M92 -395l174 291l125 -66l-217 -272z" />
<glyph unicode="&#xb9;" horiz-adv-x="505" d="M287 625l131 817h-99l17 110h246l-148 -927h-147z" />
<glyph unicode="&#xba;" horiz-adv-x="352" d="M162 1241q8 49 17 87t28.5 85t46.5 78t71 52.5t99 21.5t92 -21.5t53.5 -52.5t21.5 -78t3 -85t-10 -87q-52 -317 -262.5 -317t-159.5 317zM280 1132.5q1 -12.5 1 -30t5 -28.5t11 -22.5t17.5 -16.5t27.5 -5q14 0 26.5 5t21.5 16.5t17.5 22.5t14.5 28.5t10 31t8 33t5 28.5 t4.5 26.5t3.5 19.5q0 4 3 20.5l5 27.5t4 29.5t2 33v32t-4 29.5t-10.5 23.5t-17.5 16.5t-25.5 5t-27.5 -5t-23.5 -16.5t-18.5 -23.5t-14.5 -29.5t-11.5 -31t-9 -34t-5 -29.5t-4 -27.5t-3 -20.5t-3 -19.5t-4 -26.5t-4 -29.5t-2 -33z" />
<glyph unicode="&#xbb;" horiz-adv-x="731" d="M121 125l276 407l-172 400l101 55l192 -455l-315 -458zM365 125l276 407l-172 400l100 55l193 -455l-316 -458z" />
<glyph unicode="&#xbc;" horiz-adv-x="1261" d="M186 0l1010 1544h127l-1010 -1544h-127zM287 625l131 817h-99l17 110h246l-148 -927h-147zM758 250l18 110l361 568h159l-92 -580h64l-17 -98h-63l-39 -250h-143l38 250h-286zM895 348h166l61 389h-4z" />
<glyph unicode="&#xbd;" horiz-adv-x="1261" d="M121 0l1009 1544h127l-1009 -1544h-127zM262 625l129 809h-98l18 118h246l-147 -927h-148zM737 0l25 47l287 428q94 147 108 242q8 43 -6 74.5t-55 31.5q-18 0 -32.5 -7t-24 -21.5t-16.5 -26.5t-12 -33.5t-7.5 -33t-5.5 -31t-3 -21.5l-4 -24h-149l6 34q10 66 23.5 108 t41 85t77.5 64.5t124 21.5q123 0 168 -58.5t27 -170.5q-25 -154 -246 -453l-109 -141h250l-18 -115h-449z" />
<glyph unicode="&#xbe;" horiz-adv-x="1261" d="M176 827l4 29h142l-5 -31q-8 -41 6.5 -69.5t55.5 -28.5q31 0 52.5 16.5t33.5 48t17 52t12 55.5q10 72 -7.5 114t-89.5 40h-39l19 110h16q84 0 116 30t44 112q4 27 5 44t0 43.5t-13.5 41t-36.5 14.5q-74 0 -92 -117l-4 -26h-142l11 8q10 121 60 185.5t181 64.5 q121 0 158 -63.5t18 -176.5q-6 -39 -13 -67.5t-23.5 -61.5t-46 -56.5t-70.5 -33.5v-4q53 -10 78.5 -44t23.5 -77t-6 -90q-20 -129 -84.5 -203t-196.5 -74q-115 0 -157.5 54.5t-26.5 160.5zM227 0l1010 1544h127l-1010 -1544h-127zM750 250l18 110l360 568h160l-92 -580h64 l-17 -98h-63l-39 -250h-144l39 250h-286zM887 348h166l61 389h-4z" />
<glyph unicode="&#xbf;" horiz-adv-x="698" d="M51 -173q2 52 7 92t14 99q8 45 12 72t16.5 76t24.5 79.5t33.5 69.5t47 60.5t63.5 37t81 13.5l51 328h181l-74 -465l-45 2q-43 0 -76 -15.5t-51.5 -34t-31.5 -58.5t-18 -64.5t-14 -77.5q0 -2 -6 -37t-8 -54.5t-6 -56t0 -59t10 -48.5t23.5 -38t44.5 -12q12 0 24.5 4t20.5 9 t16 15.5t14.5 18.5t11.5 23.5t8 22.5t6 25.5t4 24.5t4 24.5t3 20.5l7 37h192l-4 -29q-12 -70 -24.5 -115.5t-37 -99t-57.5 -85t-88 -52t-127 -20.5q-61 0 -106 14t-73 35.5t-44.5 58.5t-23.5 72t-5 87zM414 1020q8 49 50 85t92 36t81 -36t22 -85q-8 -51 -50 -88t-93 -37 t-80.5 37t-21.5 88z" />
<glyph unicode="&#xc0;" horiz-adv-x="847" d="M8 0l580 1544h162l88 -1544h-207l-10 301h-308l-104 -301h-201zM371 461h245l-6 223l11 561h-5zM541 1888l151 88l119 -305l-111 -59z" />
<glyph unicode="&#xc1;" horiz-adv-x="847" d="M8 0l580 1544h162l88 -1544h-207l-10 301h-308l-104 -301h-201zM371 461h245l-6 223l11 561h-5zM567 1671l217 305l123 -88l-245 -276z" />
<glyph unicode="&#xc2;" horiz-adv-x="847" d="M8 0l580 1544h162l88 -1544h-207l-10 301h-308l-104 -301h-201zM371 461h245l-6 223l11 561h-5zM438 1698l303 287l207 -287l-108 -78l-133 170l-175 -170z" />
<glyph unicode="&#xc3;" horiz-adv-x="847" d="M8 0l580 1544h162l88 -1544h-207l-10 301h-308l-104 -301h-201zM371 461h245l-6 223l11 561h-5zM440 1722q16 84 62.5 143.5t124.5 59.5q51 0 109.5 -33.5t86.5 -33.5q33 0 47 59h115q-12 -86 -57 -144.5t-125 -58.5q-41 0 -99.5 33t-82.5 33q-49 0 -56 -58h-125z" />
<glyph unicode="&#xc4;" horiz-adv-x="847" d="M8 0l580 1544h162l88 -1544h-207l-10 301h-308l-104 -301h-201zM371 461h245l-6 223l11 561h-5zM428 1798q8 49 47 84t90 35q47 0 75 -34t22 -79q-8 -47 -47.5 -82.5t-86.5 -35.5t-77.5 31.5t-22.5 80.5zM758 1798q8 49 47 84t90 35q47 0 74.5 -34t21.5 -79 q-8 -47 -46 -82.5t-87 -35.5q-47 0 -77.5 31.5t-22.5 80.5z" />
<glyph unicode="&#xc5;" horiz-adv-x="847" d="M8 0l580 1544h162l88 -1544h-207l-10 301h-308l-104 -301h-201zM371 461h245l-6 223l11 561h-5zM537 1763q12 72 67 122t126 50t112 -50t28 -122q-10 -66 -66 -113.5t-122 -47.5q-70 0 -113 46t-32 115zM635 1765q-6 -29 13 -48t48 -19t51.5 20.5t28.5 46.5 q4 31 -12 52.5t-49 21.5q-31 0 -53.5 -21.5t-26.5 -52.5z" />
<glyph unicode="&#xc6;" horiz-adv-x="1159" d="M0 0l571 1544h512l13 -178h-336l28 -489h306l10 -179h-305l37 -520h329l13 -178h-537l-14 301h-322l-104 -301h-201zM362 461h261l-17 325l8 465h-4z" />
<glyph unicode="&#xc7;" horiz-adv-x="755" d="M205 748q12 78 25.5 143t39 152t55 157t75.5 140.5t100.5 117.5t130.5 77t162 30q100 0 172 -45l-31 -187q-72 39 -125 39q-59 0 -109.5 -24.5t-86 -61.5t-66.5 -95t-49.5 -106.5t-35 -119t-23.5 -108.5t-15 -95q-8 -53 -14.5 -97t-9.5 -108.5t1.5 -114t18.5 -102.5 t38.5 -88t67.5 -57.5t101 -22.5q66 0 129 31l-29 -180q-74 -43 -172 -43q-473 0 -350 768zM246 -395l174 291l125 -66l-217 -272z" />
<glyph unicode="&#xc8;" horiz-adv-x="710" d="M125 0l244 1544h551l-27 -178h-346l-78 -485h309l-28 -179h-310l-82 -524h347l-29 -178h-551zM504 1888l151 88l119 -305l-110 -59z" />
<glyph unicode="&#xc9;" horiz-adv-x="710" d="M125 0l244 1544h551l-27 -178h-346l-78 -485h309l-28 -179h-310l-82 -524h347l-29 -178h-551zM561 1671l217 305l123 -88l-246 -276z" />
<glyph unicode="&#xca;" horiz-adv-x="710" d="M125 0l244 1544h551l-27 -178h-346l-78 -485h309l-28 -179h-310l-82 -524h347l-29 -178h-551zM395 1698l303 287l207 -287l-108 -78l-133 170l-175 -170z" />
<glyph unicode="&#xcb;" horiz-adv-x="710" d="M125 0l244 1544h551l-27 -178h-346l-78 -485h309l-28 -179h-310l-82 -524h347l-29 -178h-551zM391 1798q8 49 47 84t90 35q47 0 75 -34t22 -79q-8 -47 -47 -82.5t-86 -35.5t-78 31.5t-23 80.5zM721 1798q8 49 47 84t90 35q47 0 75 -34t21 -79q-8 -47 -46 -82.5t-87 -35.5 q-47 0 -77.5 31.5t-22.5 80.5z" />
<glyph unicode="&#xcc;" horiz-adv-x="454" d="M125 0l244 1544h204l-243 -1544h-205zM344 1888l152 88l118 -305l-110 -59z" />
<glyph unicode="&#xcd;" horiz-adv-x="454" d="M125 0l244 1544h204l-243 -1544h-205zM371 1671l217 305l123 -88l-246 -276z" />
<glyph unicode="&#xce;" horiz-adv-x="454" d="M125 0l244 1544h204l-243 -1544h-205zM242 1698l303 287l207 -287l-109 -78l-133 170l-174 -170z" />
<glyph unicode="&#xcf;" horiz-adv-x="454" d="M125 0l244 1544h204l-243 -1544h-205zM231 1798q8 49 47 84t91 35q47 0 74.5 -34t21.5 -79q-8 -47 -47 -82.5t-86 -35.5t-78 31.5t-23 80.5zM561 1798q8 49 47 84t90 35q47 0 75 -34t22 -79q-8 -47 -46 -82.5t-87 -35.5q-47 0 -78 31.5t-23 80.5z" />
<glyph unicode="&#xd0;" horiz-adv-x="954" d="M92 702l29 179h143l105 663h229q70 0 115 -4t101 -21.5t90 -49t65.5 -91t42 -142.5t6.5 -208t-29 -283q-82 -512 -295 -657q-119 -84 -356 -88h-72h-141l111 702h-144zM356 174q238 -8 332 211q43 102 84 360q49 309 29 431q-35 208 -254 194l-78 -489h143l-28 -179h-144 z" />
<glyph unicode="&#xd1;" horiz-adv-x="966" d="M125 0l244 1544h196l176 -1173l4 4l50 618l86 551h204l-243 -1544h-191l-172 1190l-4 -4l-4 -101l-51 -518l-90 -567h-205zM500 1722q16 84 62 143.5t124 59.5q51 0 109.5 -33.5t87.5 -33.5q33 0 47 59h114q-12 -86 -57 -144.5t-125 -58.5q-41 0 -99 33t-83 33 q-49 0 -55 -58h-125z" />
<glyph unicode="&#xd2;" horiz-adv-x="974" d="M171 441q1 48 8 119t13.5 111t16.5 101q12 82 21.5 133t32 143.5t47 154t65.5 136t90 119.5t118.5 76t151.5 31q63 0 114.5 -19.5t86.5 -48.5t57.5 -77t34.5 -93t16.5 -110.5t3.5 -113.5t-8.5 -119t-12.5 -110.5t-15 -101.5q-14 -82 -23.5 -133t-32 -143.5t-46 -153.5 t-65.5 -136t-90 -120t-118 -75.5t-154 -30.5q-63 0 -114.5 19t-85 48t-57 77t-36 93t-16.5 110.5t-3 113.5zM390 348q5 -51 18.5 -93t40 -62.5t65.5 -20.5q59 0 104.5 45t78 135t54 185.5t44.5 234.5q14 90 22 158.5t13.5 141.5t0 124t-18.5 93t-40.5 62.5t-66.5 20.5 q-57 0 -103.5 -45t-78 -135t-54.5 -185.5t-43 -234.5q-14 -90 -22.5 -158.5t-13.5 -141.5t0 -124zM584 1888l151 88l119 -305l-111 -59z" />
<glyph unicode="&#xd3;" horiz-adv-x="974" d="M171 441q1 48 8 119t13.5 111t16.5 101q12 82 21.5 133t32 143.5t47 154t65.5 136t90 119.5t118.5 76t151.5 31q63 0 114.5 -19.5t86.5 -48.5t57.5 -77t34.5 -93t16.5 -110.5t3.5 -113.5t-8.5 -119t-12.5 -110.5t-15 -101.5q-14 -82 -23.5 -133t-32 -143.5t-46 -153.5 t-65.5 -136t-90 -120t-118 -75.5t-154 -30.5q-63 0 -114.5 19t-85 48t-57 77t-36 93t-16.5 110.5t-3 113.5zM390 348q5 -51 18.5 -93t40 -62.5t65.5 -20.5q59 0 104.5 45t78 135t54 185.5t44.5 234.5q14 90 22 158.5t13.5 141.5t0 124t-18.5 93t-40.5 62.5t-66.5 20.5 q-57 0 -103.5 -45t-78 -135t-54.5 -185.5t-43 -234.5q-14 -90 -22.5 -158.5t-13.5 -141.5t0 -124zM651 1671l217 305l123 -88l-246 -276z" />
<glyph unicode="&#xd4;" horiz-adv-x="974" d="M171 441q1 48 8 119t13.5 111t16.5 101q12 82 21.5 133t32 143.5t47 154t65.5 136t90 119.5t118.5 76t151.5 31q63 0 114.5 -19.5t86.5 -48.5t57.5 -77t34.5 -93t16.5 -110.5t3.5 -113.5t-8.5 -119t-12.5 -110.5t-15 -101.5q-14 -82 -23.5 -133t-32 -143.5t-46 -153.5 t-65.5 -136t-90 -120t-118 -75.5t-154 -30.5q-63 0 -114.5 19t-85 48t-57 77t-36 93t-16.5 110.5t-3 113.5zM390 348q5 -51 18.5 -93t40 -62.5t65.5 -20.5q59 0 104.5 45t78 135t54 185.5t44.5 234.5q14 90 22 158.5t13.5 141.5t0 124t-18.5 93t-40.5 62.5t-66.5 20.5 q-57 0 -103.5 -45t-78 -135t-54.5 -185.5t-43 -234.5q-14 -90 -22.5 -158.5t-13.5 -141.5t0 -124zM502 1698l303 287l207 -287l-109 -78l-133 170l-174 -170z" />
<glyph unicode="&#xd5;" horiz-adv-x="974" d="M171 441q1 48 8 119t13.5 111t16.5 101q12 82 21.5 133t32 143.5t47 154t65.5 136t90 119.5t118.5 76t151.5 31q63 0 114.5 -19.5t86.5 -48.5t57.5 -77t34.5 -93t16.5 -110.5t3.5 -113.5t-8.5 -119t-12.5 -110.5t-15 -101.5q-14 -82 -23.5 -133t-32 -143.5t-46 -153.5 t-65.5 -136t-90 -120t-118 -75.5t-154 -30.5q-63 0 -114.5 19t-85 48t-57 77t-36 93t-16.5 110.5t-3 113.5zM390 348q5 -51 18.5 -93t40 -62.5t65.5 -20.5q59 0 104.5 45t78 135t54 185.5t44.5 234.5q14 90 22 158.5t13.5 141.5t0 124t-18.5 93t-40.5 62.5t-66.5 20.5 q-57 0 -103.5 -45t-78 -135t-54.5 -185.5t-43 -234.5q-14 -90 -22.5 -158.5t-13.5 -141.5t0 -124zM504 1722q16 84 62 143.5t124 59.5q51 0 109.5 -33.5t87.5 -33.5q33 0 47 59h115q-12 -86 -57.5 -144.5t-125.5 -58.5q-41 0 -99 33t-83 33q-49 0 -55 -58h-125z" />
<glyph unicode="&#xd6;" horiz-adv-x="974" d="M171 441q1 48 8 119t13.5 111t16.5 101q12 82 21.5 133t32 143.5t47 154t65.5 136t90 119.5t118.5 76t151.5 31q63 0 114.5 -19.5t86.5 -48.5t57.5 -77t34.5 -93t16.5 -110.5t3.5 -113.5t-8.5 -119t-12.5 -110.5t-15 -101.5q-14 -82 -23.5 -133t-32 -143.5t-46 -153.5 t-65.5 -136t-90 -120t-118 -75.5t-154 -30.5q-63 0 -114.5 19t-85 48t-57 77t-36 93t-16.5 110.5t-3 113.5zM390 348q5 -51 18.5 -93t40 -62.5t65.5 -20.5q59 0 104.5 45t78 135t54 185.5t44.5 234.5q14 90 22 158.5t13.5 141.5t0 124t-18.5 93t-40.5 62.5t-66.5 20.5 q-57 0 -103.5 -45t-78 -135t-54.5 -185.5t-43 -234.5q-14 -90 -22.5 -158.5t-13.5 -141.5t0 -124zM492 1798q8 49 47 84t90 35q47 0 74.5 -34t21.5 -79q-8 -47 -47 -82.5t-86 -35.5t-78 31.5t-22 80.5zM821 1798q8 49 47 84t90 35q47 0 75 -34t22 -79q-8 -47 -46 -82.5 t-87 -35.5q-47 0 -78 31.5t-23 80.5z" />
<glyph unicode="&#xd7;" horiz-adv-x="1024" d="M121 199l373 321l-271 322l119 100l268 -321l375 323l84 -102l-373 -322l271 -321l-117 -101l-272 322l-373 -322z" />
<glyph unicode="&#xd8;" horiz-adv-x="974" d="M41 -8l149 229q-41 176 19 551q12 82 21.5 133t32 143.5t47 154t65.5 136t90 119.5t118.5 76t151.5 31q172 0 248 -129l96 147l97 -47l-144 -223q37 -174 -20 -541q-14 -82 -23.5 -133t-32 -143.5t-46 -153.5t-65.5 -136t-90 -120t-118 -75.5t-154 -30.5q-168 0 -241 120 l-103 -155zM393 332q16 -160 121 -160q59 0 104.5 45t78 135t54 185.5t44.5 234.5q18 117 28 221zM393 532l436 666q-16 174 -124 174q-57 0 -103.5 -45t-78 -135t-54.5 -185.5t-43 -234.5q-21 -129 -33 -240z" />
<glyph unicode="&#xd9;" horiz-adv-x="956" d="M179 259q1 56 6 104.5t16 115.5l168 1065h204l-178 -1132q-23 -139 6 -189.5t99 -50.5q98 0 134 52t56 165l182 1155h205l-172 -1095q-8 -47 -12 -71t-14.5 -70t-20.5 -71.5t-28.5 -65.5t-39 -63.5t-52 -51t-68.5 -42t-86 -24.5t-109 -10q-68 0 -119 13t-84.5 35.5 t-54 60.5t-30 76t-8.5 94zM565 1888l152 88l119 -305l-111 -59z" />
<glyph unicode="&#xda;" horiz-adv-x="956" d="M179 259q1 56 6 104.5t16 115.5l168 1065h204l-178 -1132q-23 -139 6 -189.5t99 -50.5q98 0 134 52t56 165l182 1155h205l-172 -1095q-8 -47 -12 -71t-14.5 -70t-20.5 -71.5t-28.5 -65.5t-39 -63.5t-52 -51t-68.5 -42t-86 -24.5t-109 -10q-68 0 -119 13t-84.5 35.5 t-54 60.5t-30 76t-8.5 94zM653 1671l217 305l123 -88l-245 -276z" />
<glyph unicode="&#xdb;" horiz-adv-x="956" d="M179 259q1 56 6 104.5t16 115.5l168 1065h204l-178 -1132q-23 -139 6 -189.5t99 -50.5q98 0 134 52t56 165l182 1155h205l-172 -1095q-8 -47 -12 -71t-14.5 -70t-20.5 -71.5t-28.5 -65.5t-39 -63.5t-52 -51t-68.5 -42t-86 -24.5t-109 -10q-68 0 -119 13t-84.5 35.5 t-54 60.5t-30 76t-8.5 94zM494 1698l303 287l207 -287l-109 -78l-133 170l-174 -170z" />
<glyph unicode="&#xdc;" horiz-adv-x="956" d="M179 259q1 56 6 104.5t16 115.5l168 1065h204l-178 -1132q-23 -139 6 -189.5t99 -50.5q98 0 134 52t56 165l182 1155h205l-172 -1095q-8 -47 -12 -71t-14.5 -70t-20.5 -71.5t-28.5 -65.5t-39 -63.5t-52 -51t-68.5 -42t-86 -24.5t-109 -10q-68 0 -119 13t-84.5 35.5 t-54 60.5t-30 76t-8.5 94zM483 1798q8 49 47 84t91 35q47 0 74.5 -34t21.5 -79q-8 -47 -47 -82.5t-86 -35.5t-78 31.5t-23 80.5zM813 1798q8 49 47 84t90 35q47 0 75 -34t22 -79q-8 -47 -46.5 -82.5t-87.5 -35.5q-47 0 -77.5 31.5t-22.5 80.5z" />
<glyph unicode="&#xdd;" horiz-adv-x="802" d="M248 1544h221l76 -715h4l65 199l211 516h219l-426 -878l-104 -666h-205l105 666zM596 1671l217 305l123 -88l-246 -276z" />
<glyph unicode="&#xde;" horiz-adv-x="811" d="M125 0l244 1544h204l-47 -307q43 0 73 -1t69 -5t66.5 -12.5t58 -23.5t50 -35.5t38 -52.5t25.5 -72t7 -93t-10 -119q-39 -240 -158.5 -347t-355.5 -99l-59 -377h-205zM418 551q123 -8 183.5 55.5t80.5 200.5q41 256 -156 256h-28z" />
<glyph unicode="&#xdf;" horiz-adv-x="870" d="M131 0l139 883h-88l25 151h88l45 291q16 94 37.5 157.5t61.5 121t106.5 85t161.5 27.5q178 0 239.5 -87t32.5 -267q-41 -256 -193 -303v-4q41 -12 69 -39t40 -69t18.5 -80t1 -98t-9.5 -93t-14 -92q-2 -10 -2 -17q-14 -92 -25.5 -151.5t-29 -126t-38 -106.5t-49 -78.5 t-65.5 -59t-87 -33t-114 -12.5h-67l26 172h29q31 0 54.5 5t43 20.5t32.5 28t25.5 43t19.5 51t16.5 65.5t14.5 72.5t13 87.5q2 6 2 10q2 8 4 25q8 47 11.5 73.5t7.5 74.5t1 75.5t-12.5 63.5t-29 55.5t-51 33t-74.5 11.5l26 172q106 -6 148.5 48t60.5 167q29 190 -96 190 q-20 0 -38.5 -5t-32 -17.5t-24.5 -22.5t-19.5 -31.5t-13.5 -33t-11 -37t-7 -32.5t-6 -33l-4 -25l-206 -1307h-193z" />
<glyph unicode="&#xe0;" horiz-adv-x="778" d="M119 244q-2 45 3 106.5t9 96t12 83.5q10 57 18.5 99.5t26 111t42 116.5t57 95t82 73t106.5 26q125 0 164 -131h4l19 114h192l-164 -1034h-192l20 133h-4q-45 -76 -91 -112.5t-122 -36.5q-49 0 -85 22.5t-56.5 55t-29.5 85t-11 97.5zM314 330.5q1 -21.5 1 -51t7.5 -49 t17.5 -38t27.5 -27.5t40.5 -9q123 0 176 348q2 10 2 14t2 14q57 346 -66 347q-23 0 -43 -9.5t-36.5 -28t-29 -38t-22.5 -49t-17 -51t-14.5 -55.5t-9.5 -50t-7 -46t-5 -34t-5 -33.5t-8 -47t-7.5 -51.5t-3.5 -55.5zM424 1440l151 88l121 -305l-112 -60z" />
<glyph unicode="&#xe1;" horiz-adv-x="778" d="M119 244q-2 45 3 106.5t9 96t12 83.5q10 57 18.5 99.5t26 111t42 116.5t57 95t82 73t106.5 26q125 0 164 -131h4l19 114h192l-164 -1034h-192l20 133h-4q-45 -76 -91 -112.5t-122 -36.5q-49 0 -85 22.5t-56.5 55t-29.5 85t-11 97.5zM314 330.5q1 -21.5 1 -51t7.5 -49 t17.5 -38t27.5 -27.5t40.5 -9q123 0 176 348q2 10 2 14t2 14q57 346 -66 347q-23 0 -43 -9.5t-36.5 -28t-29 -38t-22.5 -49t-17 -51t-14.5 -55.5t-9.5 -50t-7 -46t-5 -34t-5 -33.5t-8 -47t-7.5 -51.5t-3.5 -55.5zM494 1223l215 305l122 -88l-245 -277z" />
<glyph unicode="&#xe2;" horiz-adv-x="778" d="M119 244q-2 45 3 106.5t9 96t12 83.5q10 57 18.5 99.5t26 111t42 116.5t57 95t82 73t106.5 26q125 0 164 -131h4l19 114h192l-164 -1034h-192l20 133h-4q-45 -76 -91 -112.5t-122 -36.5q-49 0 -85 22.5t-56.5 55t-29.5 85t-11 97.5zM314 330.5q1 -21.5 1 -51t7.5 -49 t17.5 -38t27.5 -27.5t40.5 -9q123 0 176 348q2 10 2 14t2 14q57 346 -66 347q-23 0 -43 -9.5t-36.5 -28t-29 -38t-22.5 -49t-17 -51t-14.5 -55.5t-9.5 -50t-7 -46t-5 -34t-5 -33.5t-8 -47t-7.5 -51.5t-3.5 -55.5zM334 1249l303 287l207 -287l-109 -78l-133 170l-174 -170z " />
<glyph unicode="&#xe3;" horiz-adv-x="778" d="M119 244q-2 45 3 106.5t9 96t12 83.5q10 57 18.5 99.5t26 111t42 116.5t57 95t82 73t106.5 26q125 0 164 -131h4l19 114h192l-164 -1034h-192l20 133h-4q-45 -76 -91 -112.5t-122 -36.5q-49 0 -85 22.5t-56.5 55t-29.5 85t-11 97.5zM314 330.5q1 -21.5 1 -51t7.5 -49 t17.5 -38t27.5 -27.5t40.5 -9q123 0 176 348q2 10 2 14t2 14q57 346 -66 347q-23 0 -43 -9.5t-36.5 -28t-29 -38t-22.5 -49t-17 -51t-14.5 -55.5t-9.5 -50t-7 -46t-5 -34t-5 -33.5t-8 -47t-7.5 -51.5t-3.5 -55.5zM336 1274q14 84 60 143.5t124 59.5q51 0 109.5 -34t87.5 -34 q35 0 49 59h115q-12 -86 -58.5 -144t-126.5 -58q-41 0 -99 32.5t-83 32.5q-49 0 -53 -57h-125z" />
<glyph unicode="&#xe4;" horiz-adv-x="778" d="M119 244q-2 45 3 106.5t9 96t12 83.5q10 57 18.5 99.5t26 111t42 116.5t57 95t82 73t106.5 26q125 0 164 -131h4l19 114h192l-164 -1034h-192l20 133h-4q-45 -76 -91 -112.5t-122 -36.5q-49 0 -85 22.5t-56.5 55t-29.5 85t-11 97.5zM314 330.5q1 -21.5 1 -51t7.5 -49 t17.5 -38t27.5 -27.5t40.5 -9q123 0 176 348q2 10 2 14t2 14q57 346 -66 347q-23 0 -43 -9.5t-36.5 -28t-29 -38t-22.5 -49t-17 -51t-14.5 -55.5t-9.5 -50t-7 -46t-5 -34t-5 -33.5t-8 -47t-7.5 -51.5t-3.5 -55.5zM322 1350q8 49 47 83.5t92 34.5q45 0 72.5 -33.5t21.5 -78.5 q-8 -47 -47 -83t-84 -36q-49 0 -79 31.5t-23 81.5zM651 1350q8 49 47 83.5t93 34.5q45 0 72.5 -33.5t21.5 -78.5q-8 -47 -46 -83t-85 -36q-49 0 -79 31.5t-24 81.5z" />
<glyph unicode="&#xe5;" horiz-adv-x="778" d="M119 244q-2 45 3 106.5t9 96t12 83.5q10 57 18.5 99.5t26 111t42 116.5t57 95t82 73t106.5 26q125 0 164 -131h4l19 114h192l-164 -1034h-192l20 133h-4q-45 -76 -91 -112.5t-122 -36.5q-49 0 -85 22.5t-56.5 55t-29.5 85t-11 97.5zM314 330.5q1 -21.5 1 -51t7.5 -49 t17.5 -38t27.5 -27.5t40.5 -9q123 0 176 348q2 10 2 14t2 14q57 346 -66 347q-23 0 -43 -9.5t-36.5 -28t-29 -38t-22.5 -49t-17 -51t-14.5 -55.5t-9.5 -50t-7 -46t-5 -34t-5 -33.5t-8 -47t-7.5 -51.5t-3.5 -55.5zM438 1356q10 72 66.5 122t126 50t110.5 -50.5t31 -121.5 q-10 -66 -66 -114t-124 -48t-111 46t-33 116zM535 1358q-4 -29 14 -48.5t49 -19.5q27 0 50.5 20.5t27.5 47.5q4 31 -11.5 52.5t-48.5 21.5t-55 -21.5t-26 -52.5z" />
<glyph unicode="&#xe6;" horiz-adv-x="1148" d="M109 305q10 70 30.5 128.5t55 114.5t92 88t131.5 32q113 0 149 -68l6 4l15 88q6 90 -22.5 132t-121.5 42q-102 0 -206 -59l30 190q109 53 219 54q184 0 222 -133q90 133 239 133q309 0 230 -506l-11 -68h-428q-2 -14 -6 -48t-7 -60.5t-5 -61.5t2 -60.5t14.5 -50t30.5 -37 t49 -12.5q61 0 97 54.5t44 115.5l5 37h182q-12 -78 -38 -140t-67 -116.5t-103.5 -84t-141.5 -29.5q-195 0 -228 161q-86 -162 -252 -161q-137 0 -184 89t-22 232zM305 336q-31 -199 86 -199q121 0 152 193q29 186 -94 186q-115 0 -144 -180zM764 616h233l7 46q4 41 8 91 t-18.5 92t-67.5 42q-119 0 -156 -225z" />
<glyph unicode="&#xe7;" horiz-adv-x="569" d="M121 -395l174 291l125 -66l-217 -272zM139 508q12 78 26.5 140.5t45.5 141t71 132t105.5 91.5t146 38t148.5 -35l-31 -195h-4q-25 47 -84 49q-39 0 -71.5 -17t-56 -49t-40 -63.5t-28 -77t-16.5 -73t-11 -64.5q-57 -362 109 -362q45 0 104 39l-29 -178q-78 -41 -162 -41 q-305 0 -223 524z" />
<glyph unicode="&#xe8;" horiz-adv-x="739" d="M121 277.5q0 64.5 4 116.5t14 116q12 78 26.5 139.5t45.5 140t71 132t105.5 91.5t147.5 38q313 0 227 -541l-4 -31h-426q0 -2 -2 -8q-49 -315 71 -315q121 0 152 192h178q-25 -158 -116 -261t-242 -103q-70 0 -120 22.5t-76.5 65.5t-41 92t-14.5 113.5zM354 616h230 q4 29 6 48.5t5 55.5t-1 59.5t-12.5 48t-26.5 38t-47 13.5q-33 0 -58.5 -18.5t-41 -42t-26.5 -64.5t-15.5 -63.5t-10.5 -59.5q-2 -11 -2 -15zM385 1440l152 88l120 -305l-112 -60z" />
<glyph unicode="&#xe9;" horiz-adv-x="739" d="M121 277.5q0 64.5 4 116.5t14 116q12 78 26.5 139.5t45.5 140t71 132t105.5 91.5t147.5 38q313 0 227 -541l-4 -31h-426q0 -2 -2 -8q-49 -315 71 -315q121 0 152 192h178q-25 -158 -116 -261t-242 -103q-70 0 -120 22.5t-76.5 65.5t-41 92t-14.5 113.5zM354 616h230 q4 29 6 48.5t5 55.5t-1 59.5t-12.5 48t-26.5 38t-47 13.5q-33 0 -58.5 -18.5t-41 -42t-26.5 -64.5t-15.5 -63.5t-10.5 -59.5q-2 -11 -2 -15zM475 1223l215 305l123 -88l-246 -277z" />
<glyph unicode="&#xea;" horiz-adv-x="739" d="M121 277.5q0 64.5 4 116.5t14 116q12 78 26.5 139.5t45.5 140t71 132t105.5 91.5t147.5 38q313 0 227 -541l-4 -31h-426q0 -2 -2 -8q-49 -315 71 -315q121 0 152 192h178q-25 -158 -116 -261t-242 -103q-70 0 -120 22.5t-76.5 65.5t-41 92t-14.5 113.5zM315 1249l303 287 l207 -287l-108 -78l-133 170l-174 -170zM354 616h230q4 29 6 48.5t5 55.5t-1 59.5t-12.5 48t-26.5 38t-47 13.5q-33 0 -58.5 -18.5t-41 -42t-26.5 -64.5t-15.5 -63.5t-10.5 -59.5q-2 -11 -2 -15z" />
<glyph unicode="&#xeb;" horiz-adv-x="739" d="M121 277.5q0 64.5 4 116.5t14 116q12 78 26.5 139.5t45.5 140t71 132t105.5 91.5t147.5 38q313 0 227 -541l-4 -31h-426q0 -2 -2 -8q-49 -315 71 -315q121 0 152 192h178q-25 -158 -116 -261t-242 -103q-70 0 -120 22.5t-76.5 65.5t-41 92t-14.5 113.5zM303 1350 q8 49 47 83.5t92 34.5q45 0 73 -33.5t22 -78.5q-8 -47 -47 -83t-84 -36q-49 0 -79 31.5t-24 81.5zM354 616h230q4 29 6 48.5t5 55.5t-1 59.5t-12.5 48t-26.5 38t-47 13.5q-33 0 -58.5 -18.5t-41 -42t-26.5 -64.5t-15.5 -63.5t-10.5 -59.5q-2 -11 -2 -15zM633 1350 q8 49 47 83.5t92 34.5q45 0 72.5 -33.5t21.5 -78.5q-8 -47 -46 -83t-85 -36q-49 0 -78.5 31.5t-23.5 81.5z" />
<glyph unicode="&#xec;" horiz-adv-x="368" d="M88 0l164 1034h192l-163 -1034h-193zM229 1440l152 88l121 -305l-113 -60z" />
<glyph unicode="&#xed;" horiz-adv-x="368" d="M88 0l164 1034h192l-163 -1034h-193zM258 1223l215 305l123 -88l-246 -277z" />
<glyph unicode="&#xee;" horiz-adv-x="368" d="M88 0l164 1034h192l-163 -1034h-193zM129 1249l303 287l207 -287l-109 -78l-133 170l-174 -170z" />
<glyph unicode="&#xef;" horiz-adv-x="368" d="M88 0l164 1034h192l-163 -1034h-193zM117 1350q8 49 47 83.5t92 34.5q45 0 72.5 -33.5t21.5 -78.5q-8 -47 -47 -83t-84 -36q-49 0 -78.5 31.5t-23.5 81.5zM446 1350q8 49 47 83.5t93 34.5q45 0 72.5 -33.5t21.5 -78.5q-8 -47 -46 -83t-85 -36q-49 0 -79 31.5t-24 81.5z " />
<glyph unicode="&#xf0;" horiz-adv-x="768" d="M122 277.5q-1 64.5 4 118t15 118.5q10 74 25.5 133.5t46.5 131t71 119.5t105.5 82t147.5 34q61 0 98 -23q-23 141 -88 291l-164 -74l-47 103l170 73q-88 186 -146 275l164 57q66 -102 144 -258l161 78l50 -102l-168 -78q160 -348 86 -819q-16 -92 -31.5 -161 t-48.5 -147.5t-74 -128t-108.5 -83t-151.5 -33.5q-72 0 -123 22.5t-78.5 65.5t-43 92t-16.5 113.5zM316 335q-3 -44 1.5 -73t14.5 -54.5t29.5 -36.5t48.5 -11q33 0 57.5 13t42.5 43t30.5 56.5t23.5 75.5t16.5 79t15.5 87q6 41 9 62.5t8 61.5t5 62.5t-1 54t-7 50t-16 37 t-28.5 27t-41.5 8.5q-37 0 -65.5 -23t-47 -54.5t-34 -86t-22.5 -95.5t-17 -104q-10 -57 -14.5 -96t-7.5 -83z" />
<glyph unicode="&#xf1;" horiz-adv-x="794" d="M90 0l164 1034h192l-18 -119h4q90 135 230 136q49 0 84.5 -13.5t53 -41t27 -55.5t8.5 -73t-4.5 -76.5t-11.5 -80.5l-112 -711h-193l113 715q27 164 -88 164q-35 0 -60.5 -15.5t-40 -34t-26 -53.5t-15.5 -55.5t-10 -56.5q-2 -12 -2 -19l-102 -645h-193zM332 1274 q14 84 60 143.5t124 59.5q51 0 109.5 -34t87.5 -34q35 0 49 59h115q-12 -86 -58.5 -144t-126.5 -58q-41 0 -99 32.5t-83 32.5q-49 0 -53 -57h-125z" />
<glyph unicode="&#xf2;" horiz-adv-x="768" d="M123 280.5q0 65.5 4 118t14 115.5q12 80 27.5 143.5t47.5 141.5t74 129t109.5 87t151.5 36q72 0 123 -23.5t78.5 -66.5t43 -93.5t15.5 -116t-4 -118.5t-14 -119q-12 -78 -27.5 -140.5t-47.5 -139t-74 -128t-109.5 -87t-151.5 -35.5q-72 0 -123 23.5t-78.5 66.5t-43 92 t-15.5 114.5zM315 283.5q0 -29.5 7.5 -49t17.5 -38t28.5 -27.5t41.5 -9q27 0 50 13t39.5 30.5t31 49.5t23.5 55.5t17.5 61.5t11.5 56t8 52t5 36q0 6 5 33.5t7 45t6 50.5t4 55.5v52t-7 49t-17 38t-28.5 27.5t-41.5 9q-27 0 -50 -13t-39.5 -30.5t-31 -49t-23.5 -55.5 t-17.5 -62.5t-11.5 -57t-8 -54.5t-5 -38q-2 -4 -6 -30.5t-7 -44t-6.5 -49.5t-3.5 -54.5v-52zM430 1440l152 88l120 -305l-112 -60z" />
<glyph unicode="&#xf3;" horiz-adv-x="768" d="M123 280.5q0 65.5 4 118t14 115.5q12 80 27.5 143.5t47.5 141.5t74 129t109.5 87t151.5 36q72 0 123 -23.5t78.5 -66.5t43 -93.5t15.5 -116t-4 -118.5t-14 -119q-12 -78 -27.5 -140.5t-47.5 -139t-74 -128t-109.5 -87t-151.5 -35.5q-72 0 -123 23.5t-78.5 66.5t-43 92 t-15.5 114.5zM315 283.5q0 -29.5 7.5 -49t17.5 -38t28.5 -27.5t41.5 -9q27 0 50 13t39.5 30.5t31 49.5t23.5 55.5t17.5 61.5t11.5 56t8 52t5 36q0 6 5 33.5t7 45t6 50.5t4 55.5v52t-7 49t-17 38t-28.5 27.5t-41.5 9q-27 0 -50 -13t-39.5 -30.5t-31 -49t-23.5 -55.5 t-17.5 -62.5t-11.5 -57t-8 -54.5t-5 -38q-2 -4 -6 -30.5t-7 -44t-6.5 -49.5t-3.5 -54.5v-52zM459 1223l215 305l123 -88l-246 -277z" />
<glyph unicode="&#xf4;" horiz-adv-x="768" d="M123 280.5q0 65.5 4 118t14 115.5q12 80 27.5 143.5t47.5 141.5t74 129t109.5 87t151.5 36q72 0 123 -23.5t78.5 -66.5t43 -93.5t15.5 -116t-4 -118.5t-14 -119q-12 -78 -27.5 -140.5t-47.5 -139t-74 -128t-109.5 -87t-151.5 -35.5q-72 0 -123 23.5t-78.5 66.5t-43 92 t-15.5 114.5zM315 283.5q0 -29.5 7.5 -49t17.5 -38t28.5 -27.5t41.5 -9q27 0 50 13t39.5 30.5t31 49.5t23.5 55.5t17.5 61.5t11.5 56t8 52t5 36q0 6 5 33.5t7 45t6 50.5t4 55.5v52t-7 49t-17 38t-28.5 27.5t-41.5 9q-27 0 -50 -13t-39.5 -30.5t-31 -49t-23.5 -55.5 t-17.5 -62.5t-11.5 -57t-8 -54.5t-5 -38q-2 -4 -6 -30.5t-7 -44t-6.5 -49.5t-3.5 -54.5v-52zM330 1249l303 287l207 -287l-109 -78l-133 170l-174 -170z" />
<glyph unicode="&#xf5;" horiz-adv-x="768" d="M123 280.5q0 65.5 4 118t14 115.5q12 80 27.5 143.5t47.5 141.5t74 129t109.5 87t151.5 36q72 0 123 -23.5t78.5 -66.5t43 -93.5t15.5 -116t-4 -118.5t-14 -119q-12 -78 -27.5 -140.5t-47.5 -139t-74 -128t-109.5 -87t-151.5 -35.5q-72 0 -123 23.5t-78.5 66.5t-43 92 t-15.5 114.5zM315 283.5q0 -29.5 7.5 -49t17.5 -38t28.5 -27.5t41.5 -9q27 0 50 13t39.5 30.5t31 49.5t23.5 55.5t17.5 61.5t11.5 56t8 52t5 36q0 6 5 33.5t7 45t6 50.5t4 55.5v52t-7 49t-17 38t-28.5 27.5t-41.5 9q-27 0 -50 -13t-39.5 -30.5t-31 -49t-23.5 -55.5 t-17.5 -62.5t-11.5 -57t-8 -54.5t-5 -38q-2 -4 -6 -30.5t-7 -44t-6.5 -49.5t-3.5 -54.5v-52zM332 1274q14 84 60 143.5t124 59.5q51 0 109.5 -34t87.5 -34q35 0 49 59h115q-12 -86 -58.5 -144t-126.5 -58q-41 0 -99 32.5t-83 32.5q-49 0 -53 -57h-125z" />
<glyph unicode="&#xf6;" horiz-adv-x="768" d="M123 280.5q0 65.5 4 118t14 115.5q12 80 27.5 143.5t47.5 141.5t74 129t109.5 87t151.5 36q72 0 123 -23.5t78.5 -66.5t43 -93.5t15.5 -116t-4 -118.5t-14 -119q-12 -78 -27.5 -140.5t-47.5 -139t-74 -128t-109.5 -87t-151.5 -35.5q-72 0 -123 23.5t-78.5 66.5t-43 92 t-15.5 114.5zM315 283.5q0 -29.5 7.5 -49t17.5 -38t28.5 -27.5t41.5 -9q27 0 50 13t39.5 30.5t31 49.5t23.5 55.5t17.5 61.5t11.5 56t8 52t5 36q0 6 5 33.5t7 45t6 50.5t4 55.5v52t-7 49t-17 38t-28.5 27.5t-41.5 9q-27 0 -50 -13t-39.5 -30.5t-31 -49t-23.5 -55.5 t-17.5 -62.5t-11.5 -57t-8 -54.5t-5 -38q-2 -4 -6 -30.5t-7 -44t-6.5 -49.5t-3.5 -54.5v-52zM317 1350q8 49 47 83.5t93 34.5q45 0 72.5 -33.5t21.5 -78.5q-8 -47 -47 -83t-84 -36q-49 0 -79 31.5t-24 81.5zM647 1350q8 49 47 83.5t92 34.5q45 0 73 -33.5t22 -78.5 q-8 -47 -46 -83t-85 -36q-49 0 -79 31.5t-24 81.5z" />
<glyph unicode="&#xf7;" horiz-adv-x="1024" d="M162 453l22 143h846l-22 -143h-846zM432 10l33 205h162l-33 -205h-162zM561 834l33 204h162l-33 -204h-162z" />
<glyph unicode="&#xf8;" horiz-adv-x="768" d="M45 33l98 127q-39 131 2 377q10 76 26.5 139t47.5 136t72 122t106.5 83t147.5 34q139 0 207 -84l82 104l73 -49l-112 -148q33 -133 -7 -380q-12 -78 -27.5 -141.5t-47 -135.5t-73.5 -120t-108.5 -80.5t-148.5 -32.5q-131 0 -203 84l-63 -86zM326 244q14 -92 90 -92 q23 0 42 8t34.5 24.5t27.5 34t21.5 45t16.5 48t12 51t8.5 46t7.5 43t6 33.5l20 148h-4zM326 403h4l280 388q-8 47 -26.5 69.5t-61.5 22.5q-127 0 -176 -312q0 -6 -2 -10z" />
<glyph unicode="&#xf9;" horiz-adv-x="796" d="M135 216q-2 73 15 161l104 657h192l-102 -647q-2 -6 -4 -22q-4 -31 -6 -47.5t-4 -45t3 -45t14 -34t29.5 -25.5t49.5 -8q25 0 44 6t32.5 13t25 25.5t17.5 28t12 36t7 34.5t6 39t5 35l105 657h192l-110 -698q-27 -172 -108 -262t-246 -90q-102 0 -164 28.5t-84.5 79.5 t-24.5 124zM414 1440l151 88l121 -305l-113 -60z" />
<glyph unicode="&#xfa;" horiz-adv-x="796" d="M135 216q-2 73 15 161l104 657h192l-102 -647q-2 -6 -4 -22q-4 -31 -6 -47.5t-4 -45t3 -45t14 -34t29.5 -25.5t49.5 -8q25 0 44 6t32.5 13t25 25.5t17.5 28t12 36t7 34.5t6 39t5 35l105 657h192l-110 -698q-27 -172 -108 -262t-246 -90q-102 0 -164 28.5t-84.5 79.5 t-24.5 124zM504 1223l215 305l123 -88l-246 -277z" />
<glyph unicode="&#xfb;" horiz-adv-x="796" d="M135 216q-2 73 15 161l104 657h192l-102 -647q-2 -6 -4 -22q-4 -31 -6 -47.5t-4 -45t3 -45t14 -34t29.5 -25.5t49.5 -8q25 0 44 6t32.5 13t25 25.5t17.5 28t12 36t7 34.5t6 39t5 35l105 657h192l-110 -698q-27 -172 -108 -262t-246 -90q-102 0 -164 28.5t-84.5 79.5 t-24.5 124zM344 1249l303 287l207 -287l-109 -78l-133 170l-174 -170z" />
<glyph unicode="&#xfc;" horiz-adv-x="796" d="M135 216q-2 73 15 161l104 657h192l-102 -647q-2 -6 -4 -22q-4 -31 -6 -47.5t-4 -45t3 -45t14 -34t29.5 -25.5t49.5 -8q25 0 44 6t32.5 13t25 25.5t17.5 28t12 36t7 34.5t6 39t5 35l105 657h192l-110 -698q-27 -172 -108 -262t-246 -90q-102 0 -164 28.5t-84.5 79.5 t-24.5 124zM332 1350q8 49 47 83.5t92 34.5q45 0 72.5 -33.5t21.5 -78.5q-8 -47 -47 -83t-84 -36q-49 0 -78.5 31.5t-23.5 81.5zM662 1350q8 49 47 83.5t92 34.5q45 0 72.5 -33.5t21.5 -78.5q-8 -47 -46 -83t-85 -36q-49 0 -79 31.5t-23 81.5z" />
<glyph unicode="&#xfd;" horiz-adv-x="763" d="M55 -424l240 508l-123 950h215l37 -721h4l289 721h194l-653 -1458h-203zM508 1223l215 305l123 -88l-246 -277z" />
<glyph unicode="&#xfe;" horiz-adv-x="778" d="M20 -424l293 1847h193l-82 -522h4q43 74 91 112t122 38q49 0 85 -22.5t56.5 -55.5t29.5 -85t11 -96t-2 -105.5t-9 -96.5t-13 -84q-8 -59 -17.5 -101.5t-27 -111t-42 -116.5t-57 -95t-82 -72.5t-106.5 -25.5q-72 0 -107.5 32.5t-56.5 100.5h-4l-86 -541h-193zM354 502 q-57 -346 66 -346q43 0 74.5 29.5t53 89t33 110.5t23.5 131q0 4 5 34t7 46t7.5 50t4.5 56.5t-1 52t-7.5 49t-17.5 38t-27.5 28t-39.5 9.5q-123 0 -177 -349q-2 -10 -2 -14t-2 -14z" />
<glyph unicode="&#xff;" horiz-adv-x="763" d="M55 -424l240 508l-123 950h215l37 -721h4l289 721h194l-653 -1458h-203zM315 1350q8 49 47 83.5t93 34.5q45 0 72.5 -33.5t21.5 -78.5q-8 -47 -47 -83t-84 -36q-49 0 -79 31.5t-24 81.5zM645 1350q8 49 47 83.5t92 34.5q45 0 73 -33.5t22 -78.5q-8 -47 -46 -83t-85 -36 q-49 0 -79 31.5t-24 81.5z" />
<glyph unicode="&#x152;" horiz-adv-x="1224" d="M173 339q-1 69 0 114t9 116.5t13.5 103.5t13.5 91q2 8 4 27q10 61 16.5 96t19.5 105.5t26.5 115.5t36 111.5t47 109.5t60.5 92t74.5 77t91 47.5t109.5 19.5q78 0 130.5 -36t68.5 -106h4l18 121h537l-27 -178h-342l-77 -483h315l-29 -178h-315l-82 -527h352l-28 -178h-537 l20 123h-4q-90 -143 -258 -143q-57 0 -102 20t-75 50t-49 81t-29.5 95t-11.5 113zM387 388q0 -50 9.5 -84t22.5 -65.5t37.5 -48t57.5 -16.5q39 0 73 18.5t56.5 44t44 72.5t33.5 85t25.5 103.5t19.5 102.5t16 107q6 47 11 69q2 14 13 72.5t18 104.5t15.5 113t4.5 117 t-16.5 97t-43 72.5t-77.5 25.5q-104 0 -165 -131t-114 -471q0 -6 -8 -50t-12.5 -72.5t-11.5 -83t-8 -93.5t-1 -89z" />
<glyph unicode="&#x153;" horiz-adv-x="1189" d="M123 297q2 70 7 123t15 119q80 512 404 512q74 0 128 -43t66 -117h5q35 76 101 118t138 42q70 0 119 -23.5t74.5 -69t40 -95.5t13.5 -117.5t-6 -120t-16 -115.5l-4 -31h-436v-12q0 -6 -2 -18q-4 -35 -6 -55.5t-3 -60.5t3 -65.5t13 -53.5t29.5 -41t47.5 -13q119 0 154 190 h176q-29 -160 -121 -263t-244 -103q-147 6 -196 163q-47 -82 -106.5 -121.5t-143.5 -41.5q-72 0 -122 24.5t-75.5 70.5t-40 97t-12.5 121zM336 506q-55 -346 74 -346q127 0 180 344q2 8 2 12t2 12q57 348 -70 349q-133 0 -184 -345q-2 -12 -2 -16q0 -2 -2 -10zM797 612h235 q6 31 8 50.5t5.5 57.5t-1 62.5t-12.5 51t-27.5 40t-48.5 13.5q-31 0 -54 -12.5t-38.5 -38t-27 -47t-19.5 -58.5t-10 -54t-6 -48z" />
<glyph unicode="&#x178;" horiz-adv-x="802" d="M248 1544h221l76 -715h4l65 199l211 516h219l-426 -878l-104 -666h-205l105 666zM406 1798q8 49 47 84t90 35q47 0 74.5 -34t21.5 -79q-8 -47 -47 -82.5t-86 -35.5t-78 31.5t-22 80.5zM735 1798q8 49 47 84t90 35q47 0 75 -34t22 -79q-8 -47 -46 -82.5t-87 -35.5 q-47 0 -78 31.5t-23 80.5z" />
<glyph unicode="&#x2c6;" horiz-adv-x="573" d="M231 1249l304 287l206 -287l-108 -78l-133 170l-174 -170z" />
<glyph unicode="&#x2dc;" horiz-adv-x="573" d="M233 1274q14 84 60.5 143.5t124.5 59.5q51 0 109.5 -34t86.5 -34q36 0 50 59h114q-12 -86 -58 -144t-126 -58q-41 0 -99.5 32.5t-82.5 32.5q-49 0 -54 -57h-125z" />
<glyph unicode="&#x2000;" horiz-adv-x="992" />
<glyph unicode="&#x2001;" horiz-adv-x="1985" />
<glyph unicode="&#x2002;" horiz-adv-x="992" />
<glyph unicode="&#x2003;" horiz-adv-x="1985" />
<glyph unicode="&#x2004;" horiz-adv-x="661" />
<glyph unicode="&#x2005;" horiz-adv-x="496" />
<glyph unicode="&#x2006;" horiz-adv-x="330" />
<glyph unicode="&#x2007;" horiz-adv-x="330" />
<glyph unicode="&#x2008;" horiz-adv-x="248" />
<glyph unicode="&#x2009;" horiz-adv-x="397" />
<glyph unicode="&#x200a;" horiz-adv-x="110" />
<glyph unicode="&#x2010;" horiz-adv-x="495" d="M137 453l25 155h364l-24 -155h-365z" />
<glyph unicode="&#x2011;" horiz-adv-x="495" d="M137 453l25 155h364l-24 -155h-365z" />
<glyph unicode="&#x2012;" horiz-adv-x="495" d="M137 453l25 155h364l-24 -155h-365z" />
<glyph unicode="&#x2013;" horiz-adv-x="1024" d="M72 455l24 151h1024l-24 -151h-1024z" />
<glyph unicode="&#x2014;" horiz-adv-x="2048" d="M338 455l24 151h1516l-25 -151h-1515z" />
<glyph unicode="&#x2018;" horiz-adv-x="436" d="M217 1020l283 545l102 -31l-227 -563z" />
<glyph unicode="&#x2019;" horiz-adv-x="436" d="M236 1001l227 564l158 -49l-285 -543z" />
<glyph unicode="&#x201a;" horiz-adv-x="436" d="M23 -348l227 565l158 -51l-285 -543z" />
<glyph unicode="&#x201c;" horiz-adv-x="704" d="M205 1020l282 545l103 -31l-228 -563zM485 1020l283 545l102 -31l-227 -563z" />
<glyph unicode="&#x201d;" horiz-adv-x="704" d="M236 1001l227 564l158 -49l-285 -543zM516 1001l227 564l158 -49l-285 -543z" />
<glyph unicode="&#x201e;" horiz-adv-x="704" d="M23 -348l227 565l158 -51l-285 -543zM303 -348l227 565l158 -51l-285 -543z" />
<glyph unicode="&#x2022;" horiz-adv-x="819" d="M147 772q25 160 155 273.5t290 113.5q162 0 257 -113.5t71 -273.5q-25 -158 -157 -271.5t-294 -113.5q-160 0 -253.5 113.5t-68.5 271.5z" />
<glyph unicode="&#x2026;" horiz-adv-x="2048" d="M236 104q8 49 50 85t92 36t80.5 -35.5t22.5 -85.5q-8 -51 -50 -87.5t-92 -36.5t-81 36.5t-22 87.5zM918 104q8 49 50 85t92 36t80.5 -35.5t22.5 -85.5q-8 -51 -50 -87.5t-92 -36.5t-81 36.5t-22 87.5zM1599 104q8 49 50.5 85t92.5 36t80.5 -35.5t22.5 -85.5 q-8 -51 -50 -87.5t-92 -36.5t-81 36.5t-23 87.5z" />
<glyph unicode="&#x202f;" horiz-adv-x="397" />
<glyph unicode="&#x2039;" horiz-adv-x="487" d="M137 532l336 455l84 -55l-299 -400l150 -407l-99 -51z" />
<glyph unicode="&#x203a;" horiz-adv-x="487" d="M121 125l276 407l-172 400l101 55l192 -455l-315 -458z" />
<glyph unicode="&#x205f;" horiz-adv-x="496" />
<glyph unicode="&#x20ac;" d="M129 561l29 103h69l27 167h-82l29 103h75q154 629 592 629q111 0 185 -45l-47 -170q-76 31 -127 30q-299 0 -406 -444h420l-29 -103h-411l-11 -69q-10 -63 -14 -98h391l-28 -103h-371q-10 -397 276 -397q61 0 125 22l-26 -174q-72 -33 -164 -32q-449 0 -412 581h-90z" />
<glyph unicode="&#x2122;" horiz-adv-x="1536" d="M225 1421l19 123h573l-18 -123h-224l-116 -739h-125l117 739h-226zM805 682l135 862h182l105 -608h4l305 608h180l-135 -862h-113l117 739h-4l-358 -739h-66l-119 739h-4l-116 -739h-113z" />
<glyph unicode="&#xe000;" horiz-adv-x="1034" d="M0 0v1034h1034v-1034h-1034z" />
<glyph unicode="&#xfb01;" horiz-adv-x="940" d="M139 0l140 883h-97l25 151h96l53 334q10 63 19.5 105.5t31 92.5t50 79.5t77 50t111.5 20.5q61 0 125 -28l-33 -201q-41 25 -75 24q-14 0 -26.5 -3t-22 -7t-18.5 -13l-14.5 -14.5t-10.5 -19.5t-8 -19t-6 -22.5t-4 -22t-4 -23.5t-3 -21l-49 -312h159l-24 -151h-160 l-139 -883h-193zM631 0l164 1034h192l-164 -1034h-192zM805 1348q8 53 52 90t97 37q51 0 83 -38t24 -89q-8 -53 -52.5 -91t-95.5 -38q-53 0 -84.5 37.5t-23.5 91.5z" />
<glyph unicode="&#xfb02;" horiz-adv-x="911" d="M139 0l140 883h-97l25 151h96l53 334q10 63 19.5 105.5t31 92.5t50 79.5t77 50t111.5 20.5q61 0 125 -28l-33 -201q-41 25 -75 24q-14 0 -26.5 -3t-22 -7t-18.5 -13l-14.5 -14.5t-10.5 -19.5t-8 -19t-6 -22.5t-4 -22t-4 -23.5t-3 -21l-49 -312h159l-24 -151h-160 l-139 -883h-193zM631 0l268 1700h193l-269 -1700h-192z" />
</font>
</defs>
</svg>
