<?xml version="1.0" encoding="utf-8"?>
<!-- Generator: Adobe Illustrator 12.0.0, SVG Export Plug-In . SVG Version: 6.00 Build 51448)  -->
<!DOCTYPE svg PUBLIC "-//W3C//DTD SVG 1.1//EN" "http://www.w3.org/Graphics/SVG/1.1/DTD/svg11.dtd" [
	<!ENTITY ns_svg "http://www.w3.org/2000/svg">
	<!ENTITY ns_xlink "http://www.w3.org/1999/xlink">
]>
<svg  version="1.1" id="Layer_1" xmlns="&ns_svg;" xmlns:xlink="&ns_xlink;" width="65.786" height="13.525"
	 viewBox="0 0 65.786 13.525" overflow="visible" enable-background="new 0 0 65.786 13.525" xml:space="preserve">
<g>
	<path fill="#F1F1F2" d="M21.759,4.729l0.164-0.975c0.277-1.557,1.169-2.158,2.381-2.158c0.462,0,0.925,0.082,1.267,0.312
		c0.23,0.327,0.271,0.967,0.176,1.389c-0.395-0.272-0.748-0.4-1.211-0.395c-0.756,0.009-1.103,0.309-1.223,1.034l-0.125,0.793h1.594
		c0.04,0.068,0.095,0.218,0.095,0.504c0,0.353-0.069,0.639-0.163,0.789h-1.661l-0.616,5.783c-0.149,0.082-0.382,0.123-0.776,0.123
		s-0.625-0.041-0.763-0.123l0.699-5.783h-0.939c0.014-0.422,0.123-0.98,0.271-1.293H21.759z"/>
	<path fill="#F1F1F2" d="M27.064,6.891c-0.273,0.558-0.381,1.334-0.381,1.946c0,1.212,0.435,1.811,1.319,1.811
		c0.626,0,1.035-0.3,1.308-0.681c0.313-0.449,0.503-1.32,0.503-2.138c0-1.196-0.422-1.864-1.32-1.864
		C27.813,5.965,27.323,6.36,27.064,6.891 M31.324,7.816c0,1.074-0.259,2.191-0.844,2.967c-0.518,0.693-1.402,1.143-2.559,1.143
		c-1.797,0-2.763-1.074-2.763-3.008c0-0.951,0.217-1.904,0.681-2.666c0.545-0.913,1.455-1.526,2.762-1.526
		C30.263,4.726,31.324,5.761,31.324,7.816"/>
	<path fill="#F1F1F2" d="M34.277,6.891c-0.272,0.558-0.381,1.334-0.381,1.946c0,1.212,0.435,1.811,1.319,1.811
		c0.626,0,1.035-0.3,1.308-0.681c0.313-0.449,0.503-1.32,0.503-2.138c0-1.196-0.422-1.864-1.32-1.864
		C35.026,5.965,34.535,6.36,34.277,6.891 M38.537,7.816c0,1.074-0.258,2.191-0.844,2.967c-0.518,0.693-1.402,1.143-2.56,1.143
		c-1.796,0-2.762-1.074-2.762-3.008c0-0.951,0.217-1.904,0.68-2.666c0.546-0.913,1.457-1.526,2.764-1.526
		C37.475,4.726,38.537,5.761,38.537,7.816"/>
	<path fill="#F1F1F2" d="M44.212,6.238c-0.286-0.177-0.544-0.218-0.871-0.218c-0.789,0-1.347,0.313-1.701,0.761
		c-0.422,0.545-0.585,1.471-0.585,2.151c0,1.103,0.408,1.593,1.238,1.593c0.708,0,1.116-0.342,1.484-0.832L44.212,6.238z
		 M45.232,9.871c-0.067,0.599,0.109,0.693,0.408,0.693c0.273,0,0.396-0.054,0.585-0.162c0.068,0.422-0.081,1.033-0.299,1.293
		c-0.23,0.149-0.517,0.231-0.925,0.231c-0.722,0-1.171-0.313-1.212-1.13h-0.081c-0.327,0.626-0.953,1.13-2.001,1.13
		c-1.185,0-2.164-0.653-2.164-2.75c0-1.116,0.272-2.231,0.831-3.049c0.68-0.979,1.714-1.401,2.816-1.401
		c0.448,0,0.844,0.068,1.156,0.231l0.396-3.076c0.326-0.204,0.789-0.285,1.416-0.285L45.232,9.871z"/>
	<path fill="#F1F1F2" d="M49.07,6.891c-0.271,0.558-0.381,1.334-0.381,1.946c0,1.212,0.436,1.811,1.32,1.811
		c0.626,0,1.035-0.3,1.306-0.681c0.314-0.449,0.504-1.32,0.504-2.138c0-1.196-0.422-1.864-1.319-1.864
		C49.819,5.965,49.328,6.36,49.07,6.891 M53.33,7.816c0,1.074-0.259,2.191-0.844,2.967c-0.517,0.693-1.401,1.143-2.559,1.143
		c-1.796,0-2.764-1.074-2.764-3.008c0-0.951,0.219-1.904,0.682-2.666c0.545-0.913,1.457-1.526,2.763-1.526
		C52.269,4.726,53.33,5.761,53.33,7.816"/>
	<path fill="#F1F1F2" d="M56.338,6.306h0.082c0.245-1.089,0.885-1.579,1.783-1.579c0.259,0,0.463,0.041,0.611,0.136
		c0.097,0.164,0.15,0.381,0.15,0.749c0,0.381-0.054,0.613-0.136,0.803c-0.19-0.122-0.437-0.205-0.763-0.205
		c-0.871,0-1.416,0.641-1.77,1.784l-0.418,3.812c-0.149,0.082-0.381,0.121-0.762,0.121c-0.395,0-0.627-0.039-0.763-0.121l0.841-6.71
		c0.271-0.136,0.666-0.204,1.184-0.204L56.338,6.306z"/>
	<path fill="#F1F1F2" d="M63.769,6.156c-0.218-0.137-0.49-0.19-0.816-0.19c-0.803,0-1.334,0.298-1.675,0.747
		c-0.461,0.6-0.612,1.498-0.612,2.232c0,1.116,0.367,1.593,1.185,1.593c0.693,0,1.115-0.354,1.47-0.83L63.769,6.156z M64.776,9.872
		c-0.068,0.598,0.108,0.692,0.408,0.692c0.271,0,0.394-0.053,0.585-0.162c0.067,0.422-0.082,1.033-0.299,1.293
		c-0.232,0.149-0.518,0.231-0.927,0.231c-0.721,0-1.17-0.313-1.211-1.13h-0.082c-0.312,0.613-0.953,1.13-1.985,1.13
		c-1.145,0-2.11-0.653-2.11-2.735c0-1.131,0.272-2.26,0.885-3.077c0.734-0.979,1.796-1.388,3.007-1.388
		c0.967,0,1.661,0.258,2.22,0.707L64.776,9.872z"/>
	<path fill="#F1F1F2" d="M8.099,0.676c0,0.373-0.303,0.676-0.676,0.676c-0.374,0-0.676-0.303-0.676-0.676S7.049,0,7.423,0
		C7.796,0,8.099,0.303,8.099,0.676"/>
	<path fill="#F1F1F2" d="M6.269,2.869C4.612,3.791,3.454,5.528,3.31,7.553H2.139C2.426,5.252,4.095,3.394,6.269,2.869 M14.488,7.963
		h-0.751c-0.251-3.122-2.301-5.639-5.366-6.073c0-0.001,0-0.002,0-0.003C8.07,1.841,7.765,1.814,7.449,1.814
		c-0.332,0-0.658,0.028-0.977,0.078C3.412,2.33,1.367,4.845,1.117,7.963h-0.77C0.155,7.963,0,8.119,0,8.312v0.612h0.479h1.67h5.278
		h5.276h1.671h0.462V8.312C14.837,8.119,14.681,7.963,14.488,7.963"/>
	<path fill="#F1F1F2" d="M13.012,9.885c-0.426,0.07-1.533,0.313-2.096,0.428c-0.006,0.189-0.096,0.428-0.242,0.619
		c-0.172,0.223-0.494,0.489-1.06,0.489H7c-0.323,0,0.586-0.524,2.263-0.524c0.231,0,0.416-0.067,0.55-0.2
		c0.196-0.197,0.256-0.519,0.024-0.697C9.72,9.909,9.556,9.86,9.386,9.86H3.424c0.201,1.018,0.632,1.952,1.235,2.75
		c0.463-0.136,0.739-0.065,1.184,0.03c0.627,0.134,1.65,0.524,2.744,0.386c2.005-0.255,4.618-2.246,4.783-2.302
		c0.145-0.084,0.423-0.332,0.381-0.594S13.369,9.824,13.012,9.885"/>
	<path fill="#F1F1F2" d="M2.229,9.86H0.541H0.54c-0.192,0-0.332,0.181-0.284,0.367l0.001,0.005c0.372,1.266,1.127,2.368,2.131,3.173
		c0.082,0.065,0.184,0.104,0.288,0.11c0.094,0.007,0.188,0.01,0.283,0.01c0.428,0,0.844-0.057,1.241-0.158
		c0.066-0.018,0.086-0.104,0.033-0.15C3.247,12.351,2.53,11.186,2.229,9.86"/>
</g>
</svg>
