<?xml version="1.0" encoding="utf-8"?>
<!-- Generator: Adobe Illustrator 12.0.0, SVG Export Plug-In . SVG Version: 6.00 Build 51448)  -->
<!DOCTYPE svg PUBLIC "-//W3C//DTD SVG 1.1//EN" "http://www.w3.org/Graphics/SVG/1.1/DTD/svg11.dtd" [
	<!ENTITY ns_svg "http://www.w3.org/2000/svg">
	<!ENTITY ns_xlink "http://www.w3.org/1999/xlink">
]>
<svg  version="1.1" id="Layer_1" xmlns="&ns_svg;" xmlns:xlink="&ns_xlink;" width="24.424" height="33.354"
	 viewBox="0 0 24.424 33.354" overflow="visible" enable-background="new 0 0 24.424 33.354" xml:space="preserve">
<g>
	<path fill="#221E1F" d="M13.89,16.959c-0.368,0.138-2.117-0.092-2.854-0.283c-0.735-0.19-0.367-1.419-0.229-1.787
		c0.137-0.367,1.519-2.76,1.519-2.76c0.408,1.665,2.002,3.059,2.514,3.461c0.229,0.163,0.189,0.15,0,0
		c-0.057-0.04-0.127-0.089-0.214-0.148C16.098,16.591,14.257,16.822,13.89,16.959 M23.366,27.402c0,0,0.139-0.506-1.379-0.781
		c-1.519-0.277-1.842-1.197-1.979-1.336c-0.139-0.137,0.598-0.551,0.92-1.01c0.322-0.461-0.092-0.828-0.783-1.15
		c-0.689-0.324-1.191-0.324-1.676-1.611s-0.854-1.242-1.129-1.701c-0.277-0.461-0.139-0.967,0.322-1.381
		c0.459-0.414,0.877-1.012,0.807-1.749c-0.07-0.735-0.301-1.426-0.301-1.563v-0.552c0,0,0.092-0.368,0.459,0
		c0.369,0.368,0.414,0.828,0.967,0.229c0.551-0.598,0.322-0.828,0.551-1.058c0.231-0.23,0.001-1.104,0.186-1.196
		c0.184-0.092,0.459-0.598,0.275-1.012s-0.322-0.736-0.736-0.966c-0.414-0.23-0.644-0.276-0.873-0.553
		c-0.229-0.275-0.549-0.506-0.527-0.736c0.021-0.229-0.762-1.333-1.037-0.229c-0.275,1.104,0.046,1.104-0.139,1.473
		c-0.184,0.367-0.139,0.597-0.23,0.827c-0.091,0.23-0.183,0.368-0.459,0.599c-0.275,0.229-0.322,0.735-0.275,0.874
		c0.045,0.138-0.322,1.012-0.047,1.104c0.276,0.092,0.69,0.276,0.69,0.276s0.092,0.368-0.229,0.414
		c-0.322,0.046-1.426-0.645-1.426-0.645s-1.013-0.368-1.152-0.598c-0.137-0.229-0.643-1.058-0.504-2.07
		c0.138-1.012-0.094-1.702-0.047-1.886s2.393-4.554,2.393-4.554s0.413,0.46,1.886,0.321c1.472-0.139,1.978-0.506,2.392-0.781
		l0.967-0.783c0,0,0.552-0.828-0.69-1.61c-1.241-0.782-1.38-0.414-1.61-0.644c-0.23-0.23-0.41-0.69-0.48-0.919
		c-0.07-0.231-0.624-0.875-1.129,0c-0.506,0.873-1.104,1.748-1.196,2.068c-0.092,0.322-0.506,1.335-0.553,1.61
		c-0.046,0.277-0.459,1.105-0.505,1.243c-0.021,0.063-0.696,1.6-1.381,2.622c-0.034,0.052-0.226,1.045-0.836,0.997
		c-0.405-0.032-0.773,0.916-0.773,0.935c0,0.137,0.138,0.552,0,0.92c-0.14,0.368,0.045,0.092-0.092,0.46
		c-0.138,0.368-0.46,0.966-0.599,1.15c-0.139,0.184-1.197,2.024-1.242,2.162s-1.059-0.138-1.196,0.229
		c-0.138,0.368-0.781,0.92-0.414,1.334c0.368,0.415,0.644,0.078,0.552,0.499s-0.46,0.835-0.275,0.882
		c0.184,0.046,0.322,0.138,0.461,0c0.137-0.138,0.367-0.507,0.367-0.507s2.943,1.703,4.555,1.38v1.104c0,0-0.414,0.414-0.414,1.197
		c0,0.781-0.046,1.473,0,1.793c0.046,0.322,0.096,0.537-0.021,1.305c-0.117,0.766-0.164,1.18-0.348,1.502
		c-0.186,0.322-0.275,0.645-0.275,0.645s-0.369,0.781,1.058,1.334c1.426,0.553,1.011,1.609,1.379,2.254c0,0,0.323,0.553,0.276,1.242
		c-0.045,0.689,0.147,0.689,0.004,1.014c-0.142,0.32-0.279,0.873-0.371,1.057s-0.206,0.645,0.426,0.414s0.632-0.736,0.861-0.875
		c0.23-0.137,0.554-0.459,0.645-0.689c0.092-0.23-0.369-0.689-0.506-0.967c-0.139-0.275-0.275-1.701-0.275-1.932
		s-0.047-0.967-0.047-0.967s0.162-0.551,0.84-0.598c0.678-0.045,0.955-0.275,1.092-0.32c0.139-0.047,0.736-0.461,1.381-0.047
		c0.644,0.414,1.518,0.689,1.656,0.781c0.138,0.094,1.058,0.783,1.104,0.92c0.046,0.139,0.23,0.414,0.275,0.645
		c0.047,0.23,0.369,0.598,0.599,0.414s0.276-1.012,0.276-1.012L23.366,27.402z"/>
	<path fill="#221E1F" d="M4.541,6.252c0,0,0-0.333,0.137-0.368c0,0,0.241-0.148,0.345,0c0.104,0.15,0.15,0.126,0.127,0.3
		C5.126,6.357,5.126,6.368,5.057,6.437c-0.07,0.068-0.173,0.218-0.092,0.264c0.08,0.047,0.092,0.012,0.19,0.115s0.062,0.275,0,0.334
		C5.092,7.207,4.907,7.265,4.804,7.265c-0.104,0-0.195,0.092-0.219,0.172C4.563,7.518,4.401,7.656,4.31,7.622
		C4.218,7.586,3.987,7.495,3.987,7.357c0-0.139,0.092-0.241,0-0.287C3.896,7.024,3.758,6.977,3.654,6.989
		C3.55,7,3.437,6.8,3.447,6.722c0.011-0.078-0.023-0.274,0.081-0.365c0.103-0.092,0.114-0.14,0.251-0.104
		c0.14,0.034,0.231,0.046,0.324,0.08C4.194,6.368,4.448,6.402,4.541,6.252"/>
	<path fill="#221E1F" d="M1.248,9.721c0,0,0.253-0.218,0.369-0.136c0,0,0.27,0.085,0.225,0.261s0.003,0.195-0.143,0.291
		c-0.146,0.095-0.154,0.103-0.252,0.096c-0.097-0.007-0.278,0.014-0.26,0.104c0.018,0.091,0.052,0.077,0.037,0.219
		c-0.014,0.142-0.167,0.229-0.252,0.218c-0.084-0.01-0.249-0.11-0.316-0.189c-0.068-0.078-0.197-0.087-0.273-0.053
		c-0.077,0.035-0.286,0.005-0.321-0.089c-0.034-0.092-0.115-0.325-0.01-0.416c0.104-0.09,0.243-0.089,0.217-0.188
		C0.243,9.738,0.188,9.604,0.111,9.534c-0.076-0.071,0-0.288,0.067-0.331s0.192-0.197,0.329-0.18
		c0.138,0.019,0.18-0.003,0.245,0.124s0.115,0.204,0.149,0.296C0.935,9.536,1.075,9.75,1.248,9.721"/>
	<path fill="#221E1F" d="M9.335,8.659c0,0,0.109-0.261,0.229-0.242c0,0,0.238-0.038,0.271,0.113c0.03,0.15,0.074,0.147,0,0.275
		C9.759,8.933,9.757,8.942,9.679,8.972C9.603,9.003,9.472,9.086,9.52,9.15c0.048,0.063,0.069,0.039,0.112,0.152
		c0.041,0.113-0.041,0.236-0.111,0.261C9.453,9.587,9.29,9.572,9.208,9.538c-0.08-0.034-0.183,0.008-0.227,0.064
		C8.937,9.657,8.765,9.711,8.705,9.654C8.645,9.596,8.494,9.449,8.54,9.34c0.046-0.107,0.151-0.157,0.095-0.225
		C8.577,9.049,8.485,8.968,8.4,8.944c-0.085-0.026-0.109-0.22-0.074-0.277c0.035-0.057,0.072-0.222,0.184-0.26
		c0.11-0.038,0.136-0.07,0.231,0.002c0.097,0.072,0.165,0.112,0.226,0.169S9.214,8.746,9.335,8.659"/>
	<path fill="#221E1F" d="M23.825,19.971c0,0,0.246-0.223,0.365-0.143c0,0,0.272,0.078,0.23,0.254
		c-0.04,0.178,0.007,0.197-0.137,0.295c-0.143,0.1-0.151,0.107-0.248,0.102c-0.098-0.004-0.277,0.02-0.26,0.109
		c0.021,0.09,0.055,0.076,0.043,0.219c-0.01,0.143-0.162,0.23-0.246,0.223c-0.086-0.008-0.252-0.105-0.321-0.182
		c-0.07-0.078-0.199-0.084-0.274-0.047c-0.074,0.037-0.285,0.01-0.322-0.082c-0.035-0.09-0.123-0.324-0.02-0.416
		c0.102-0.092,0.241-0.094,0.213-0.191c-0.027-0.1-0.086-0.232-0.164-0.303c-0.076-0.068-0.007-0.287,0.059-0.332
		c0.066-0.045,0.188-0.201,0.326-0.186c0.137,0.014,0.18-0.008,0.246,0.119c0.067,0.125,0.121,0.201,0.156,0.291
		C23.507,19.793,23.651,20.004,23.825,19.971"/>
	<path fill="#221E1F" d="M1.799,14.904c0,0-0.328-0.388-0.465-0.474c-0.139-0.087-0.302-0.226-0.355-0.285
		c-0.051-0.061,0-0.319,0.234-0.276c0.233,0.043,0.405,0.225,0.465,0.293c0.061,0.069,0.337,0.312,0.389,0.38
		c0.051,0.069,0.336,0.268,0.371,0.362c0.034,0.095,0.12,0.267,0.129,0.354c0.009,0.086,0,0.25,0,0.25s0.172,0.217,0.293,0
		c0.121-0.216,0.078-0.259,0.164-0.259s0.353,0.018,0.388,0.13s0,0.389-0.181,0.561c-0.181,0.173-0.302,0.294-0.353,0.354
		c-0.052,0.061-0.415,0.346-0.483,0.44c-0.07,0.094-0.406,0.198-0.51-0.052c-0.104-0.25,0.017-0.328-0.25-0.379
		c-0.267-0.053-0.441-0.069-0.674-0.069c-0.231,0-0.404-0.303-0.076-0.423c0.328-0.121,0.414-0.035,0.44-0.13
		c0.026-0.096-0.061-0.327-0.293-0.389c-0.234-0.06-0.259-0.188-0.44-0.231c-0.181-0.044-0.414-0.13-0.466-0.233
		c-0.052-0.104,0.232-0.182,0.379-0.146c0.147,0.033,0.509,0.146,0.673,0.215c0.164,0.069,0.354,0.251,0.388,0.251
		C1.601,15.146,2.148,15.281,1.799,14.904"/>
</g>
</svg>
