<?xml version="1.0" encoding="utf-8"?>
<!-- Generator: Adobe Illustrator 12.0.0, SVG Export Plug-In . SVG Version: 6.00 Build 51448)  -->
<!DOCTYPE svg PUBLIC "-//W3C//DTD SVG 1.1//EN" "http://www.w3.org/Graphics/SVG/1.1/DTD/svg11.dtd" [
	<!ENTITY ns_svg "http://www.w3.org/2000/svg">
	<!ENTITY ns_xlink "http://www.w3.org/1999/xlink">
]>
<svg  version="1.1" id="Layer_1" xmlns="&ns_svg;" xmlns:xlink="&ns_xlink;" width="70.785" height="47.248"
	 viewBox="0 0 70.785 47.248" overflow="visible" enable-background="new 0 0 70.785 47.248" xml:space="preserve">
<g>
	<path fill="#FFFFFF" d="M49.139,16.96c-0.367,0.138-2.117-0.092-2.854-0.283c-0.735-0.19-0.367-1.419-0.229-1.786
		c0.137-0.369,1.518-2.761,1.518-2.761c0.408,1.665,2.004,3.058,2.514,3.461c0.229,0.163,0.191,0.15,0,0
		c-0.055-0.04-0.127-0.089-0.213-0.149C51.348,16.592,49.506,16.822,49.139,16.96 M58.615,27.401c0,0,0.137-0.506-1.381-0.781
		c-1.519-0.275-1.842-1.196-1.979-1.334c-0.138-0.139,0.598-0.553,0.92-1.012c0.321-0.46-0.093-0.827-0.783-1.149
		c-0.688-0.323-1.189-0.323-1.676-1.611c-0.484-1.287-0.854-1.242-1.13-1.701c-0.276-0.461-0.137-0.967,0.322-1.381
		c0.461-0.414,0.877-1.012,0.808-1.748c-0.07-0.735-0.302-1.426-0.302-1.563v-0.552c0,0,0.093-0.368,0.459,0
		c0.369,0.367,0.416,0.828,0.968,0.229c0.551-0.598,0.321-0.828,0.551-1.058c0.231-0.23,0.002-1.104,0.186-1.196
		c0.186-0.092,0.461-0.599,0.275-1.012c-0.185-0.414-0.32-0.736-0.734-0.966s-0.645-0.276-0.875-0.553
		c-0.229-0.275-0.549-0.506-0.526-0.736c0.021-0.229-0.761-1.333-1.036-0.229c-0.277,1.104,0.045,1.103-0.141,1.472
		c-0.184,0.368-0.137,0.598-0.229,0.828s-0.184,0.368-0.459,0.598c-0.276,0.23-0.324,0.736-0.276,0.875
		c0.047,0.138-0.322,1.012-0.048,1.104c0.277,0.092,0.691,0.276,0.691,0.276s0.092,0.368-0.229,0.414
		c-0.322,0.046-1.427-0.646-1.427-0.646s-1.012-0.368-1.149-0.598s-0.644-1.058-0.506-2.07c0.139-1.012-0.093-1.702-0.046-1.886
		c0.046-0.184,2.392-4.554,2.392-4.554s0.414,0.459,1.888,0.322c1.473-0.139,1.979-0.506,2.393-0.782L56.5,3.619
		c0,0,0.553-0.828-0.689-1.61c-1.242-0.782-1.379-0.414-1.608-0.644c-0.231-0.23-0.412-0.69-0.481-0.92
		c-0.07-0.23-0.623-0.874-1.13,0c-0.506,0.874-1.104,1.748-1.194,2.07c-0.092,0.322-0.506,1.335-0.554,1.61
		c-0.047,0.277-0.459,1.105-0.506,1.243c-0.021,0.064-0.694,1.6-1.381,2.622c-0.033,0.052-0.226,1.045-0.836,0.996
		c-0.404-0.031-0.772,0.916-0.772,0.936c0,0.137,0.139,0.553,0,0.92c-0.14,0.368,0.045,0.092-0.093,0.46
		c-0.137,0.368-0.459,0.966-0.598,1.15c-0.14,0.184-1.197,2.024-1.242,2.162c-0.045,0.138-1.06-0.138-1.196,0.229
		c-0.138,0.368-0.781,0.92-0.414,1.334c0.368,0.414,0.645,0.078,0.553,0.499c-0.092,0.421-0.461,0.835-0.275,0.882
		c0.184,0.045,0.32,0.137,0.461,0c0.137-0.139,0.367-0.507,0.367-0.507s2.943,1.702,4.555,1.38v1.104c0,0-0.414,0.414-0.414,1.196
		c0,0.783-0.047,1.473,0,1.793c0.047,0.322,0.096,0.537-0.021,1.305c-0.116,0.768-0.161,1.181-0.346,1.502
		c-0.186,0.322-0.276,0.645-0.276,0.645s-0.369,0.782,1.059,1.334c1.427,0.553,1.011,1.61,1.38,2.254c0,0,0.321,0.554,0.274,1.242
		c-0.045,0.69,0.147,0.69,0.006,1.014c-0.144,0.32-0.28,0.873-0.373,1.058c-0.092,0.185-0.205,0.646,0.427,0.415
		c0.633-0.23,0.633-0.736,0.862-0.875s0.554-0.461,0.644-0.689c0.092-0.229-0.369-0.689-0.506-0.967
		c-0.138-0.275-0.275-1.701-0.275-1.932s-0.047-0.969-0.047-0.969s0.162-0.551,0.84-0.598c0.68-0.045,0.955-0.273,1.094-0.32
		c0.137-0.047,0.734-0.461,1.379-0.047s1.52,0.69,1.656,0.782c0.139,0.093,1.059,0.782,1.104,0.921
		c0.047,0.137,0.231,0.412,0.276,0.645c0.045,0.229,0.366,0.598,0.599,0.414c0.229-0.186,0.274-1.014,0.274-1.014L58.615,27.401z"/>
	<path fill="#FFFFFF" d="M39.789,6.253c0,0,0-0.333,0.137-0.368c0,0,0.24-0.149,0.346,0c0.104,0.149,0.149,0.126,0.127,0.299
		c-0.022,0.173-0.022,0.184-0.092,0.253c-0.07,0.069-0.174,0.218-0.093,0.264c0.08,0.047,0.093,0.012,0.19,0.115
		c0.098,0.104,0.062,0.276,0,0.334c-0.063,0.057-0.248,0.115-0.353,0.115c-0.104,0-0.194,0.092-0.219,0.172
		c-0.022,0.081-0.185,0.219-0.274,0.185c-0.093-0.035-0.322-0.127-0.322-0.265s0.092-0.242,0-0.287
		c-0.092-0.046-0.229-0.093-0.334-0.081C38.799,7,38.686,6.801,38.695,6.723c0.012-0.079-0.022-0.275,0.082-0.366
		c0.103-0.093,0.113-0.139,0.25-0.104c0.141,0.034,0.23,0.046,0.324,0.08C39.443,6.368,39.697,6.402,39.789,6.253"/>
	<path fill="#FFFFFF" d="M36.496,9.722c0,0,0.253-0.218,0.369-0.136c0,0,0.27,0.084,0.225,0.261
		c-0.045,0.176,0.004,0.194-0.143,0.291c-0.146,0.095-0.154,0.103-0.252,0.096c-0.098-0.007-0.278,0.013-0.26,0.103
		c0.018,0.092,0.051,0.078,0.037,0.22c-0.016,0.142-0.168,0.228-0.252,0.218c-0.084-0.01-0.25-0.111-0.316-0.189
		c-0.068-0.078-0.197-0.088-0.273-0.053c-0.076,0.035-0.285,0.004-0.32-0.088c-0.034-0.093-0.115-0.326-0.01-0.417
		c0.104-0.09,0.242-0.089,0.217-0.188c-0.026-0.1-0.082-0.233-0.158-0.305c-0.076-0.07,0-0.287,0.066-0.33
		c0.067-0.043,0.192-0.197,0.33-0.18c0.137,0.018,0.18-0.003,0.244,0.124s0.115,0.204,0.148,0.297
		C36.184,9.535,36.323,9.75,36.496,9.722"/>
	<path fill="#FFFFFF" d="M44.583,8.659c0,0,0.11-0.261,0.229-0.242c0,0,0.237-0.038,0.271,0.113c0.03,0.151,0.075,0.147,0,0.276
		c-0.075,0.127-0.077,0.135-0.155,0.167c-0.076,0.031-0.207,0.114-0.16,0.178c0.049,0.063,0.07,0.039,0.113,0.152
		c0.041,0.113-0.041,0.236-0.111,0.26c-0.067,0.025-0.23,0.01-0.313-0.024s-0.184,0.008-0.227,0.063
		c-0.045,0.056-0.217,0.11-0.277,0.053c-0.061-0.057-0.211-0.205-0.165-0.313c0.045-0.108,0.151-0.157,0.095-0.225
		c-0.058-0.066-0.148-0.147-0.234-0.172c-0.086-0.026-0.108-0.219-0.073-0.277c0.034-0.058,0.071-0.222,0.184-0.26
		c0.11-0.038,0.136-0.07,0.231,0.002c0.097,0.072,0.164,0.112,0.226,0.169C44.275,8.635,44.463,8.746,44.583,8.659"/>
	<path fill="#FFFFFF" d="M59.072,19.972c0,0,0.246-0.223,0.365-0.144c0,0,0.272,0.078,0.23,0.256
		c-0.04,0.176,0.007,0.195-0.136,0.294c-0.146,0.099-0.152,0.106-0.25,0.103c-0.099-0.006-0.276,0.018-0.259,0.108
		c0.021,0.09,0.054,0.076,0.043,0.218c-0.012,0.143-0.162,0.232-0.248,0.223c-0.084-0.008-0.25-0.105-0.319-0.182
		c-0.069-0.077-0.199-0.083-0.274-0.047c-0.074,0.037-0.283,0.01-0.32-0.081c-0.037-0.091-0.123-0.324-0.021-0.416
		c0.104-0.093,0.241-0.094,0.213-0.192c-0.027-0.1-0.086-0.232-0.164-0.302c-0.076-0.069-0.007-0.288,0.059-0.333
		c0.066-0.044,0.189-0.201,0.326-0.186s0.18-0.008,0.248,0.119c0.065,0.125,0.119,0.201,0.154,0.291
		C58.756,19.794,58.9,20.004,59.072,19.972"/>
	<path fill="#FFFFFF" d="M37.048,14.904c0,0-0.327-0.389-0.465-0.475c-0.14-0.086-0.302-0.225-0.354-0.285
		c-0.052-0.06,0-0.318,0.233-0.275s0.405,0.225,0.465,0.293c0.062,0.069,0.337,0.311,0.39,0.38c0.052,0.069,0.336,0.267,0.371,0.362
		c0.033,0.095,0.119,0.267,0.129,0.354c0.009,0.086,0,0.25,0,0.25s0.172,0.215,0.293,0c0.121-0.216,0.078-0.259,0.164-0.259
		s0.354,0.017,0.389,0.13c0.033,0.112,0,0.389-0.182,0.561c-0.182,0.173-0.303,0.294-0.354,0.354
		c-0.053,0.061-0.415,0.346-0.482,0.44c-0.069,0.094-0.406,0.198-0.511-0.052s0.017-0.328-0.25-0.381
		c-0.267-0.051-0.44-0.067-0.674-0.067c-0.231,0-0.404-0.304-0.076-0.423c0.328-0.121,0.414-0.035,0.44-0.131
		c0.025-0.095-0.063-0.326-0.293-0.388c-0.234-0.06-0.26-0.188-0.44-0.231c-0.181-0.045-0.414-0.131-0.466-0.234
		c-0.053-0.104,0.232-0.182,0.379-0.146c0.146,0.036,0.51,0.146,0.674,0.215c0.163,0.07,0.354,0.252,0.387,0.252
		C36.85,15.146,37.396,15.281,37.048,14.904"/>
	<path fill="#FFFFFF" d="M0.64,27.967v-0.334c0.284-0.092,0.599-0.188,0.944-0.289c0.51-0.161,1.266-0.411,2.266-0.745h0.719v0.838
		c0,8.342-0.025,13.313-0.076,14.922c-0.029,0.944-0.045,1.447-0.045,1.508c0,1.137,0.045,1.773,0.138,1.906
		c0.121,0.182,0.494,0.31,1.119,0.379c0.624,0.072,0.991,0.144,1.104,0.215c0.08,0.04,0.121,0.111,0.121,0.214
		c0,0.11-0.023,0.19-0.068,0.233c-0.045,0.047-0.129,0.069-0.252,0.069c-0.07,0-0.604-0.018-1.599-0.053l-1.995-0.07l-2.559,0.123
		c-0.163,0.011-0.284-0.021-0.365-0.094C0.031,46.737,0,46.664,0,46.569c0-0.104,0.033-0.18,0.099-0.227
		c0.066-0.048,0.432-0.125,1.097-0.236c0.665-0.112,1.045-0.207,1.142-0.282c0.096-0.076,0.16-0.246,0.19-0.511
		c0.041-0.365,0.061-1.396,0.061-3.092L2.574,38.72l0.046-3.627L2.604,31.47l0.046-1.783c0-0.354-0.056-0.609-0.168-0.769
		c-0.111-0.157-0.35-0.312-0.715-0.465C1.219,28.231,0.843,28.069,0.64,27.967"/>
	<path fill="#FFFFFF" d="M8.09,34.562l-0.061-0.703c0.646-0.313,1.15-0.623,1.514-0.928c0.364-0.306,0.743-0.808,1.137-1.507
		c0.141-0.243,0.213-0.497,0.213-0.762c0-0.313-0.082-0.572-0.244-0.776c-0.162-0.203-0.325-0.304-0.487-0.304L9.203,29.61
		c-0.265,0-0.517-0.123-0.754-0.368c-0.239-0.248-0.358-0.533-0.358-0.856c0-0.363,0.127-0.65,0.381-0.863
		c0.416-0.353,0.817-0.529,1.203-0.529c0.771,0,1.434,0.27,1.987,0.808c0.553,0.538,0.83,1.179,0.83,1.919
		c0,1.219-0.566,2.324-1.698,3.32C9.661,34.033,8.76,34.543,8.09,34.562"/>
	<path fill="#FFFFFF" d="M24.754,46.579c0.852,0,1.738-0.12,2.657-0.357c0.919-0.24,1.733-0.636,2.444-1.188
		c0.711-0.554,1.267-1.183,1.668-1.89c0.4-0.705,0.724-1.61,0.967-2.718c0.244-1.106,0.365-2.214,0.365-3.319
		c0-1.381-0.203-2.748-0.608-4.099c-0.316-1.024-0.828-1.94-1.538-2.748c-0.711-0.808-1.569-1.432-2.575-1.872
		c-1.005-0.441-2.075-0.662-3.213-0.662c-0.924,0-1.827,0.15-2.711,0.457c-0.883,0.303-1.608,0.69-2.177,1.164
		c-0.569,0.471-1.098,1.143-1.584,2.01c-0.488,0.869-0.858,1.826-1.112,2.871s-0.38,1.97-0.38,2.771c0,0.843,0.126,1.796,0.38,2.863
		c0.254,1.064,0.603,1.988,1.043,2.771s0.985,1.478,1.63,2.079c0.645,0.605,1.368,1.066,2.17,1.387
		C22.982,46.418,23.84,46.579,24.754,46.579 M14.184,37.104c0-1.035,0.125-1.957,0.373-2.764c0.249-0.809,0.668-1.684,1.258-2.629
		c0.588-0.943,1.299-1.732,2.131-2.367s1.985-1.195,3.459-1.684c1.035-0.335,2.345-0.502,3.928-0.502
		c1.066,0,2.109,0.143,3.13,0.426c1.021,0.285,1.946,0.682,2.78,1.188c0.832,0.51,1.664,1.291,2.496,2.348
		c0.58,0.73,1.016,1.518,1.311,2.359c0.385,1.106,0.579,2.248,0.579,3.428c0,1.341-0.13,2.453-0.39,3.336
		c-0.258,0.883-0.692,1.756-1.301,2.619c-0.478,0.669-1.295,1.439-2.453,2.314c-0.771,0.588-1.73,1.063-2.879,1.422
		c-1.146,0.36-2.385,0.543-3.715,0.543c-1.351,0-2.554-0.158-3.609-0.473c-1.057-0.314-1.937-0.699-2.643-1.15
		c-0.705-0.451-1.431-1.121-2.177-2.004c-0.747-0.883-1.313-1.856-1.699-2.922C14.377,39.526,14.184,38.364,14.184,37.104"/>
	<path fill="#FFFFFF" d="M37.412,46.882l0.016-0.318c1.207-1.359,2.055-2.355,2.543-2.984l1.219-1.553
		c0.133-0.145,0.705-0.799,1.722-1.965l1.371-1.601c0.294-0.313,0.919-1.122,1.872-2.422c-0.092-0.062-0.197-0.092-0.318-0.092
		l-0.625-0.017c-0.74-0.02-1.706-0.01-2.895,0.031c-0.844,0.03-1.492,0.133-1.948,0.305c-0.336,0.123-0.636,0.314-0.897,0.578
		c-0.419,0.418-0.718,0.809-0.9,1.174c-0.092,0.184-0.238,0.334-0.441,0.457c-0.111-0.011-0.191-0.062-0.242-0.152
		c0.039-0.111,0.133-0.383,0.28-0.814s0.272-0.824,0.374-1.18c0.335-1.127,0.639-2.021,0.914-2.682h0.548
		c-0.021,0.134-0.036,0.229-0.046,0.289c-0.051,0.295-0.076,0.519-0.076,0.67c0,0.215,0.092,0.365,0.273,0.457
		c0.254,0.144,1.088,0.215,2.498,0.215c0.334,0,0.731-0.012,1.188-0.031c1.848-0.092,3.016-0.137,3.504-0.137
		c0.192,0,0.633,0.02,1.323,0.061c0.011,0.112,0.017,0.208,0.017,0.289c0,0.173-0.031,0.307-0.093,0.396
		c-0.243,0.428-0.67,1.037-1.278,1.828l-3.106,3.793l-3.883,4.721c0.202,0,0.538,0.01,1.006,0.029h3.67
		c0.426,0.012,0.851-0.084,1.271-0.287c0.422-0.203,0.804-0.543,1.144-1.022s0.603-1.043,0.784-1.69
		c0.08-0.051,0.162-0.074,0.242-0.074c0.123,0,0.221,0.051,0.289,0.15l-0.317,2.163c-0.093,0.813-0.204,1.306-0.336,1.478
		l-9.229-0.029H37.9C37.717,46.913,37.555,46.901,37.412,46.882"/>
	<path fill="#FFFFFF" d="M50.27,36.022l0.016-0.447c0.658-0.194,1.015-0.307,1.064-0.338c0.365-0.161,0.75-0.411,1.15-0.747
		c0.4-0.337,0.738-0.714,1.014-1.132c0.12-0.021,0.217-0.03,0.288-0.03l0.183,0.016c0.041,0.487,0.063,0.843,0.063,1.065
		c0,0.052-0.01,0.279-0.029,0.685v0.81l0.014,4.386l-0.045,4.646c-0.01,0.377,0.052,0.638,0.183,0.783
		c0.132,0.147,0.524,0.313,1.173,0.496c0.406,0.11,0.71,0.209,0.913,0.289c0.031,0.072,0.046,0.133,0.046,0.184
		c0,0.061-0.025,0.137-0.076,0.229c-0.396-0.012-0.901-0.034-1.521-0.077c-0.844-0.069-1.401-0.104-1.676-0.104
		c-0.133,0-0.943,0.024-2.437,0.076c-0.305,0.01-0.599,0.034-0.883,0.075c-0.052,0-0.132-0.016-0.244-0.047
		c-0.051-0.069-0.077-0.131-0.077-0.181c0-0.145,0.098-0.256,0.29-0.336c0.04-0.021,0.558-0.137,1.554-0.352
		c0.324-0.061,0.537-0.16,0.64-0.304c0.173-0.213,0.26-0.554,0.26-1.019c0.021-0.781,0.031-2.92,0.031-6.418
		c0-0.699-0.031-1.136-0.093-1.308c-0.051-0.123-0.187-0.262-0.403-0.42C51.443,36.347,50.979,36.187,50.27,36.022"/>
	<path fill="#FFFFFF" d="M63.85,46.653c0.771,0,1.517-0.209,2.233-0.625s1.289-1.081,1.716-2.002
		c0.428-0.918,0.641-1.98,0.641-3.189c0-0.792-0.164-1.711-0.496-2.757c-0.33-1.047-0.838-1.83-1.523-2.354
		c-0.688-0.521-1.493-0.783-2.418-0.783c-0.672,0-1.354,0.156-2.052,0.472c-0.697,0.315-1.287,0.92-1.771,1.813
		c-0.484,0.895-0.725,2.162-0.725,3.809c0,1.847,0.419,3.246,1.259,4.195C61.552,46.181,62.598,46.653,63.85,46.653 M57.109,40.715
		c0-0.69,0.145-1.428,0.434-2.216c0.289-0.787,0.729-1.492,1.318-2.117c0.588-0.625,1.213-1.089,1.873-1.395
		c0.924-0.426,2.049-0.639,3.381-0.639c1.896,0,3.484,0.649,4.76,1.948c1.273,1.3,1.91,2.862,1.91,4.69
		c0,1.625-0.668,3.072-2.002,4.35c-1.336,1.273-3.023,1.91-5.064,1.91c-1.259,0-2.447-0.331-3.564-0.99
		c-0.831-0.497-1.547-1.232-2.146-2.207S57.109,41.964,57.109,40.715"/>
</g>
</svg>
